<?xml version="1.0" encoding="utf-8"?>
<!-- Generator: Adobe Illustrator 18.1.1, SVG Export Plug-In . SVG Version: 6.00 Build 0)  -->
<svg version="1.1" id="Layer_1" xmlns="http://www.w3.org/2000/svg" xmlns:xlink="http://www.w3.org/1999/xlink" x="0px" y="0px"
	 viewBox="0 0 20 20" enable-background="new 0 0 20 20" xml:space="preserve">
<path d="M17.5,6l-3.4,3.4l-0.9-0.9L13.8,8c0.5-0.5,0.5-1.3,0.1-1.8s-1.3-0.5-1.8-0.1c0,0,0,0-0.1,0.1l-0.6,0.6l-0.9-0.9L14,2.5
	L17.5,6z M9.4,14.1L6,17.5L2.5,14l3.4-3.4l0.9,0.9L6.2,12c-0.5,0.5-0.4,1.3,0.1,1.8c0.5,0.4,1.2,0.4,1.7,0l0.6-0.6L9.4,14.1z
	 M12.2,0.7L8.8,4.1c-1,1-1,2.6,0,3.5l0.9,0.9L8.5,9.7L7.6,8.8c-1-1-2.6-1-3.5,0l-3.4,3.4c-1,1-1,2.6,0,3.5l3.5,3.5c1,1,2.6,1,3.5,0
	l3.4-3.4c1-1,1-2.6,0-3.5l-0.9-0.9l1.2-1.2l0.9,0.9c1,1,2.6,1,3.5,0l3.4-3.4c1-1,1-2.6,0-3.5l-3.5-3.5C14.8-0.2,13.2-0.2,12.2,0.7
	L12.2,0.7z"/>
</svg>
