<?xml version="1.0" encoding="utf-8"?>
<!-- Generator: Adobe Illustrator 18.1.1, SVG Export Plug-In . SVG Version: 6.00 Build 0)  -->
<svg version="1.1" id="Layer_1" xmlns="http://www.w3.org/2000/svg" xmlns:xlink="http://www.w3.org/1999/xlink" x="0px" y="0px"
	 viewBox="0 0 20 20" enable-background="new 0 0 20 20" xml:space="preserve">
<path d="M10,7.5c-1.4,0-2.5,1.1-2.5,2.5s1.1,2.5,2.5,2.5s2.5-1.1,2.5-2.5S11.4,7.5,10,7.5 M2.5,7.5C3.9,7.5,5,8.6,5,10
	s-1.1,2.5-2.5,2.5S0,11.4,0,10S1.1,7.5,2.5,7.5z M17.5,7.5c1.4,0,2.5,1.1,2.5,2.5s-1.1,2.5-2.5,2.5S15,11.4,15,10S16.1,7.5,17.5,7.5
	z"/>
</svg>
