<?xml version="1.0" encoding="utf-8"?>
<!-- Generator: Adobe Illustrator 18.1.1, SVG Export Plug-In . SVG Version: 6.00 Build 0)  -->
<svg version="1.1" id="Layer_1" xmlns="http://www.w3.org/2000/svg" xmlns:xlink="http://www.w3.org/1999/xlink" x="0px" y="0px"
	 viewBox="0 0 18 18" enable-background="new 0 0 18 18" xml:space="preserve">
<path fill="#FFFFFF" d="M0,6.5C0,7,0.4,7.4,0.9,7.4S1.7,7,1.7,6.5V2.9l4.9,4.8C6.9,8,7.5,8,7.8,7.7C8,7.5,8,7.3,8,7.1
	c0-0.2-0.1-0.5-0.3-0.6L2.9,1.7h3.7c0.5,0,0.9-0.4,0.9-0.9C7.5,0.4,7.1,0,6.6,0c0,0,0,0-0.1,0L0,0L0,6.5z"/>
<path fill="#FFFFFF" d="M18,11.7c0-0.5-0.4-0.8-0.8-0.8s-0.8,0.4-0.8,0.8v3.5l-4.7-4.6c-0.3-0.3-0.9-0.3-1.2,0
	c-0.2,0.1-0.2,0.3-0.2,0.5c0,0.2,0.1,0.4,0.2,0.6l4.7,4.6h-3.5c-0.4,0-0.8,0.3-0.9,0.8c0,0.4,0.3,0.8,0.8,0.8c0,0,0,0,0,0H18V11.7z"
	/>
</svg>
