<?xml version="1.0" encoding="utf-8"?>
<!-- Generator: Adobe Illustrator 18.1.1, SVG Export Plug-In . SVG Version: 6.00 Build 0)  -->
<svg version="1.1" id="Layer_1" xmlns="http://www.w3.org/2000/svg" xmlns:xlink="http://www.w3.org/1999/xlink" x="0px" y="0px"
	 viewBox="0 0 18 18" enable-background="new 0 0 18 18" xml:space="preserve">
<path fill="#FFFFFF" d="M8,1.4c0-0.5-0.4-0.9-0.9-0.9C6.7,0.6,6.3,1,6.3,1.4v3.7L1.5,0.3c-0.4-0.4-0.9-0.4-1.2,0
	C0.1,0.4,0,0.6,0,0.8s0.1,0.5,0.3,0.6l4.9,4.8H1.5C1,6.2,0.6,6.6,0.6,7.1C0.6,7.6,0.9,8,1.4,8c0,0,0,0,0.1,0H8V1.4z"/>
<path fill="#FFFFFF" d="M10.3,16.6c0,0.5,0.4,0.8,0.8,0.8s0.8-0.4,0.8-0.8v-3.5l4.7,4.6c0.3,0.3,0.9,0.3,1.2,0
	c0.2-0.1,0.2-0.3,0.2-0.5s-0.1-0.4-0.2-0.6L13.1,12h3.5c0.4,0,0.8-0.3,0.9-0.8c0-0.4-0.3-0.8-0.8-0.8c0,0,0,0,0,0h-6.3V16.6z"/>
</svg>
