<?xml version="1.0" encoding="utf-8"?>
<!-- Generator: Adobe Illustrator 18.1.1, SVG Export Plug-In . SVG Version: 6.00 Build 0)  -->
<svg version="1.1" id="Layer_1" xmlns="http://www.w3.org/2000/svg" xmlns:xlink="http://www.w3.org/1999/xlink" x="0px" y="0px"
	 viewBox="0 0 18 18" enable-background="new 0 0 18 18" xml:space="preserve">
<path fill="#FFFFFF" d="M12.9,18L12.9,18c-1.3,0-2.4-1.1-2.4-2.4V2.4c0-1.3,1.1-2.4,2.4-2.4h0c1.3,0,2.4,1.1,2.4,2.4v13.1
	C15.4,16.9,14.3,18,12.9,18z"/>
<path fill="#FFFFFF" d="M5.1,18L5.1,18c-1.3,0-2.4-1.1-2.4-2.4V2.4C2.6,1.1,3.7,0,5.1,0h0c1.3,0,2.4,1.1,2.4,2.4v13.1
	C7.5,16.9,6.4,18,5.1,18z"/>
</svg>
