<?xml version="1.0" encoding="utf-8"?>
<!-- Generator: Adobe Illustrator 18.1.1, SVG Export Plug-In . SVG Version: 6.00 Build 0)  -->
<svg version="1.1" id="Layer_1" xmlns="http://www.w3.org/2000/svg" xmlns:xlink="http://www.w3.org/1999/xlink" x="0px" y="0px"
	 viewBox="0 0 18.4 20" enable-background="new 0 0 18.4 20" xml:space="preserve">
<path d="M16.7,11.7c0.9,0,1.7,0.8,1.7,1.7v5c0,0.9-0.8,1.7-1.7,1.7h-15C0.8,20,0,19.3,0,18.3v-5c0-0.9,0.7-1.7,1.7-1.7
	s1.7,0.8,1.7,1.7v3.3H15v-3.3C15,12.4,15.8,11.7,16.7,11.7z M6.5,7.4C5.9,8,4.8,8,4.2,7.4C3.5,6.7,3.5,5.7,4.2,5l5-5l5,5
	c0.7,0.7,0.7,1.7,0,2.4s-1.7,0.7-2.4,0l-1-1v5.1c0,0.9-0.7,1.7-1.7,1.7c-0.9,0-1.7-0.7-1.7-1.7V6.4L6.5,7.4z"/>
</svg>
