<?xml version="1.0" encoding="utf-8"?>
<!-- Generator: Adobe Illustrator 18.1.1, SVG Export Plug-In . SVG Version: 6.00 Build 0)  -->
<svg version="1.1" id="Layer_1" xmlns="http://www.w3.org/2000/svg" xmlns:xlink="http://www.w3.org/1999/xlink" x="0px" y="0px"
	 viewBox="0 0 18 18" enable-background="new 0 0 18 18" xml:space="preserve">
<path fill="#FFFFFF" d="M9,0L3.5,4H1.1C0.5,4,0,4.5,0,5.2v7.6c0,0.6,0.5,1.1,1.1,1.1h2.4L9,18V0z"/>
<g>
	<path fill="#FFFFFF" d="M14.6,3.1c-0.4,0.5-0.5,1.2-0.3,1.6C15.2,6,15.7,7.5,15.8,9c0,1.5-0.4,3.1-1.4,4.2
		c-0.4,0.5-0.4,1.3,0.2,1.6c0.4,0.5,1.2,0.4,1.5-0.2C17.2,13,18,11,18,9c0-2.1-0.6-4-1.9-5.7C15.7,2.7,15,2.7,14.6,3.1z"/>
	<path fill="#FFFFFF" d="M12.9,5.3c-0.4-0.4-1.1-0.5-1.5-0.3c-0.4,0.4-0.5,1.1-0.3,1.5c0.5,0.7,0.8,1.5,0.8,2.4
		c0,0.8-0.4,1.6-0.8,2.3c-0.4,0.4-0.4,1.2,0.2,1.5s1.2,0.4,1.5-0.2C13.6,11.6,14,10.3,14,9C14.2,7.6,13.7,6.4,12.9,5.3z"/>
</g>
</svg>
