<?xml version="1.0" encoding="utf-8"?>
<!-- Generator: Adobe Illustrator 18.1.1, SVG Export Plug-In . SVG Version: 6.00 Build 0)  -->
<svg version="1.1" id="Layer_1" xmlns="http://www.w3.org/2000/svg" xmlns:xlink="http://www.w3.org/1999/xlink" x="0px" y="0px"
	 viewBox="0 0 16 16" enable-background="new 0 0 16 16" xml:space="preserve">
<path d="M13,0.1h-2.2v1.5H13c0.8,0,1.5,0.6,1.5,1.5v2.2h1.4V3C15.9,1.4,14.7,0.1,13,0.1z M14.5,13c0,0.8-0.6,1.5-1.5,1.5h-2.2V16H13
	c1.6,0,2.8-1.3,2.8-2.8V11h-1.5L14.5,13L14.5,13z M1.6,13v-2.2H0.1V13c0,1.6,1.3,2.8,2.8,2.8h2.2v-1.5H3C2.2,14.5,1.6,13.9,1.6,13z
	 M1.6,3c0-0.8,0.6-1.5,1.5-1.5h2.2V0.1H3c-1.6,0-2.8,1.3-2.8,2.8v2.2h1.5V3z M5.9,7.7c0-0.9,0.8-1.8,1.8-1.8s1.8,0.8,1.8,1.8
	S8.7,9.5,7.7,9.5S5.9,8.6,5.9,7.7z M11.2,12.3c0.6,0,1.1-0.5,1-1.1c0-0.3-0.1-0.5-0.3-0.8L10.5,9c0.2-0.4,0.3-0.9,0.3-1.4
	c0-1.8-1.5-3.2-3.3-3.2S4.4,5.9,4.4,7.7S5.9,11,7.7,11c0.5,0,0.9-0.1,1.4-0.3l1.5,1.5C10.7,12.3,11,12.3,11.2,12.3z"/>
</svg>
