<?xml version="1.0" encoding="utf-8"?>
<!-- Generator: Adobe Illustrator 18.1.1, SVG Export Plug-In . SVG Version: 6.00 Build 0)  -->
<svg version="1.1" id="Layer_1" xmlns="http://www.w3.org/2000/svg" xmlns:xlink="http://www.w3.org/1999/xlink" x="0px" y="0px"
	 viewBox="0 0 784 18" enable-background="new 0 0 784 18" xml:space="preserve">
<path fill="#F2F2F2" d="M780.2,10.4c-4.9,0-7.2-1.9-10.1-4.3c-3.3-2.7-7.3-6-14.9-6c-7.6,0-11.7,3.3-14.9,6
	c-2.9,2.4-5.2,4.3-10.1,4.3c-4.9,0-7.2-1.9-10.1-4.3c-3.3-2.7-7.3-6-14.9-6c-7.6,0-11.7,3.3-14.9,6c-2.9,2.4-5.2,4.3-10.1,4.3
	c-4.9,0-7.2-1.9-10.1-4.3c-3.3-2.7-7.3-6-14.9-6c-7.6,0-11.7,3.3-14.9,6c-2.9,2.4-5.2,4.3-10.1,4.3c-4.9,0-7.2-1.9-10.1-4.3
	c-3.3-2.7-7.3-6-14.9-6c-7.6,0-11.7,3.3-14.9,6c-2.9,2.4-5.2,4.3-10.1,4.3c-4.9,0-7.2-1.9-10.1-4.3c-3.3-2.7-7.3-6-14.9-6
	c-7.6,0-11.7,3.3-14.9,6c-2.9,2.4-5.2,4.3-10.1,4.3c-4.9,0-7.2-1.9-10.1-4.3c-3.3-2.7-7.3-6-14.9-6c-7.6,0-11.7,3.3-14.9,6
	c-2.9,2.4-5.2,4.3-10.1,4.3c-4.9,0-7.2-1.9-10.1-4.3c-3.3-2.7-7.3-6-14.9-6c-7.6,0-11.7,3.3-14.9,6c-2.9,2.4-5.2,4.3-10.1,4.3
	c-4.9,0-7.2-1.9-10.1-4.3c-3.3-2.7-7.3-6-14.9-6c-7.6,0-11.7,3.3-14.9,6c-2.9,2.4-5.2,4.3-10.1,4.3c-4.9,0-7.2-1.9-10.1-4.3
	c-3.3-2.7-7.3-6-14.9-6c-7.6,0-11.7,3.3-14.9,6c-2.9,2.4-5.2,4.3-10.1,4.3c-4.9,0-7.2-1.9-10.1-4.3c-3.3-2.7-7.3-6-14.9-6
	c-7.6,0-11.7,3.3-14.9,6c-2.9,2.4-5.2,4.3-10.1,4.3s-7.2-1.9-10.1-4.3c-3.3-2.7-7.3-6-14.9-6c-7.6,0-11.7,3.3-14.9,6
	c-2.9,2.4-5.2,4.3-10.1,4.3c-4.9,0-7.2-1.9-10.1-4.3c-3.3-2.7-7.3-6-14.9-6c-7.6,0-11.7,3.3-14.9,6c-2.9,2.4-5.2,4.3-10.1,4.3
	s-7.2-1.9-10.1-4.3c-3.3-2.7-7.3-6-14.9-6c-7.6,0-11.7,3.3-14.9,6c-2.9,2.4-5.2,4.3-10.1,4.3c-4.9,0-7.2-1.9-10.1-4.3
	c-3.3-2.7-7.3-6-14.9-6c-7.6,0-11.7,3.3-14.9,6c-2.9,2.4-5.2,4.3-10.1,4.3c-4.9,0-7.2-1.9-10.1-4.3c-3.3-2.7-7.3-6-14.9-6
	c-7.6,0-11.7,3.3-14.9,6c-2.9,2.4-5.2,4.3-10.1,4.3c-4.9,0-7.2-1.9-10.1-4.3c-3.3-2.7-7.3-6-14.9-6C2,0.2,0.3,1.9,0.3,4
	S2,7.7,4.1,7.7c4.9,0,7.2,1.9,10.1,4.3c3.3,2.7,7.3,6,14.9,6c7.6,0,11.7-3.3,14.9-6c2.9-2.4,5.2-4.3,10.1-4.3
	c4.9,0,7.2,1.9,10.1,4.3c3.3,2.7,7.3,6,14.9,6c7.6,0,11.7-3.3,14.9-6c2.9-2.4,5.2-4.3,10.1-4.3c4.9,0,7.2,1.9,10.1,4.3
	c3.3,2.7,7.3,6,14.9,6c7.6,0,11.7-3.3,14.9-6c2.9-2.4,5.2-4.3,10.1-4.3s7.2,1.9,10.1,4.3c3.3,2.7,7.3,6,14.9,6
	c7.6,0,11.7-3.3,14.9-6c2.9-2.4,5.2-4.3,10.1-4.3c4.9,0,7.2,1.9,10.1,4.3c3.3,2.7,7.3,6,14.9,6c7.6,0,11.7-3.3,14.9-6
	c2.9-2.4,5.2-4.3,10.1-4.3c4.9,0,7.2,1.9,10.1,4.3c3.3,2.7,7.3,6,14.9,6c7.6,0,11.7-3.3,14.9-6c2.9-2.4,5.2-4.3,10.1-4.3
	c4.9,0,7.2,1.9,10.1,4.3c3.3,2.7,7.3,6,14.9,6s11.7-3.3,14.9-6c2.9-2.4,5.2-4.3,10.1-4.3c4.9,0,7.2,1.9,10.1,4.3
	c3.3,2.7,7.3,6,14.9,6c7.6,0,11.7-3.3,14.9-6c2.9-2.4,5.2-4.3,10.1-4.3c4.9,0,7.2,1.9,10.1,4.3c3.3,2.7,7.3,6,14.9,6
	c7.6,0,11.7-3.3,14.9-6c2.9-2.4,5.2-4.3,10.1-4.3c4.9,0,7.2,1.9,10.1,4.3c3.3,2.7,7.3,6,14.9,6c7.6,0,11.7-3.3,14.9-6
	c2.9-2.4,5.2-4.3,10.1-4.3c4.9,0,7.2,1.9,10.1,4.3c3.3,2.7,7.3,6,14.9,6c7.6,0,11.7-3.3,14.9-6c2.9-2.4,5.2-4.3,10.1-4.3
	c4.9,0,7.2,1.9,10.1,4.3c3.3,2.7,7.3,6,14.9,6c7.6,0,11.7-3.3,14.9-6c2.9-2.4,5.2-4.3,10.1-4.3c4.9,0,7.2,1.9,10.1,4.3
	c3.3,2.7,7.3,6,14.9,6c7.6,0,11.7-3.3,14.9-6c2.9-2.4,5.2-4.3,10.1-4.3c4.9,0,7.2,1.9,10.1,4.3c3.3,2.7,7.3,6,14.9,6
	c7.6,0,11.7-3.3,14.9-6c2.9-2.4,5.2-4.3,10.1-4.3c4.9,0,7.2,1.9,10.1,4.3c3.3,2.7,7.3,6,14.9,6c7.6,0,11.7-3.3,14.9-6
	c2.9-2.4,5.2-4.3,10.1-4.3c4.9,0,7.2,1.9,10.1,4.3c3.3,2.7,7.3,6,14.9,6c2.1,0,3.8-1.7,3.8-3.8C784,12.1,782.3,10.4,780.2,10.4z"/>
</svg>
