<?xml version="1.0" encoding="utf-8"?>
<!-- Generator: Adobe Illustrator 18.1.1, SVG Export Plug-In . SVG Version: 6.00 Build 0)  -->
<svg version="1.1" id="Layer_1" xmlns="http://www.w3.org/2000/svg" xmlns:xlink="http://www.w3.org/1999/xlink" x="0px" y="0px"
	 viewBox="0 0 50 48" enable-background="new 0 0 50 48" xml:space="preserve">
<linearGradient id="SVGID_1_" gradientUnits="userSpaceOnUse" x1="4.309368e-008" y1="24" x2="49.991" y2="24">
	<stop  offset="0" style="stop-color:#FFFFFF"/>
	<stop  offset="1" style="stop-color:#FCFCFF"/>
</linearGradient>
<path fill="url(#SVGID_1_)" d="M0,48c0,0,11.1-32.3,50-48c0,0-0.1,7.7-4.3,15.1c0,0-7.8,4.1-11.6,4.3l0,0c0,0,4.9,2.2,8.4,1.4
	c0,0,0,0,0,0c0,0-3.7,5.8-5.8,7.1c0,0-6.2,1.4-11.7,0.8c0,0,3.2,2.6,6.8,3.5c0,0,0,0,0,0c0,0-4.6,3.3-6.8,4.2c0,0,0,0,0,0
	c-0.2,0.1-2,1.1-7.1-0.7c-5.4-1.9-8.6,2.1-10.2,9l0,0L0,48z"/>
</svg>
