<?xml version="1.0" encoding="utf-8"?>
<!-- Generator: Adobe Illustrator 18.1.1, SVG Export Plug-In . SVG Version: 6.00 Build 0)  -->
<svg version="1.1" id="Layer_1" xmlns="http://www.w3.org/2000/svg" xmlns:xlink="http://www.w3.org/1999/xlink" x="0px" y="0px"
	 viewBox="0 0 40 40" enable-background="new 0 0 40 40" xml:space="preserve">
<path fill="none" stroke="#68686A" stroke-width="3" stroke-miterlimit="10" d="M12,16.3H4.2c-1.5,0-2.7,1.2-2.7,2.7v15.4
	c0,1.5,1.2,2.7,2.7,2.7H12c1.5,0,2.7-1.2,2.7-2.7V19C14.7,17.5,13.5,16.3,12,16.3z"/>
<path fill="none" stroke="#68686A" stroke-width="3" stroke-linecap="round" stroke-linejoin="round" stroke-miterlimit="10" d="
	M35.8,19.6c1.5,0,2.6-1.2,2.6-2.6s-1.2-2.6-2.6-2.6H33h-4.3h-0.9c0,0,0-0.8,0.2-2.3c0.9-4.7-0.5-8.9-4.8-9.6
	c-4.2-0.7-3.5,3.4-3.5,3.4v6.3c0,0.6-0.2,1.3-0.6,1.8l-4.6,6.1v13.4l2.7,2c0,0,4.6,0,9,0c2.4,0,4.7,0,6.2,0h0.8
	c1.5,0,2.6-1.2,2.6-2.6c0-1.5-1.2-2.6-2.6-2.6h1.1c1.5,0,2.6-1.2,2.6-2.6s-1.2-2.6-2.6-2.6h1.3c1.5,0,2.6-1.2,2.6-2.6
	C38.5,20.8,37.3,19.6,35.8,19.6z"/>
</svg>
