<?xml version="1.0" encoding="utf-8"?>
<!-- Generator: Adobe Illustrator 18.1.1, SVG Export Plug-In . SVG Version: 6.00 Build 0)  -->
<svg version="1.1" id="Layer_1" xmlns="http://www.w3.org/2000/svg" xmlns:xlink="http://www.w3.org/1999/xlink" x="0px" y="0px"
	 viewBox="0 0 108 104" enable-background="new 0 0 108 104" xml:space="preserve">
<path fill="#1465E7" d="M1,102.4C4.4,93.4,30.2,32.2,106.3,1c0.3-0.1,0.7,0.1,0.7,0.5c-0.2,3.4-1.3,17.7-9.1,31.3
	c0,0.1-0.1,0.2-0.2,0.2c-1.4,0.8-14.6,7.5-22.7,8.9c-0.5,0.1-0.6,0.8-0.1,1c3.1,1.2,9.6,3.3,15.1,2.6c0.4-0.1,0.7,0.4,0.5,0.8
	c-1.9,2.9-7.9,11.7-11.6,14.1c-0.1,0-0.1,0.1-0.2,0.1c-1.1,0.2-12.5,2.6-23.2,1.9c-0.5,0-0.7,0.6-0.3,0.9c2.2,1.6,6.9,4.6,12.1,6.2
	c0.4,0.1,0.5,0.6,0.1,0.9c-2.5,1.8-9.8,6.8-13.6,8.3c0,0-0.1,0-0.1,0c-0.4,0.2-4.2,2.4-15-1.5C27.4,73,20.5,81.6,17,96.1
	c0,0.2-0.1,0.3-0.3,0.3L1.7,103C1.3,103.2,0.9,102.8,1,102.4z"/>
</svg>
