<?xml version="1.0" encoding="utf-8"?>
<!-- Generator: Adobe Illustrator 18.1.1, SVG Export Plug-In . SVG Version: 6.00 Build 0)  -->
<svg version="1.1" id="Layer_1" xmlns="http://www.w3.org/2000/svg" xmlns:xlink="http://www.w3.org/1999/xlink" x="0px" y="0px"
	 viewBox="0 0 30 25.5" enable-background="new 0 0 30 25.5" xml:space="preserve">
<g id="Heart">
	<g>
		<path fill="none" stroke="#373736" stroke-width="2.3" stroke-miterlimit="10" d="M25.9,3.3c-2.2-2.1-5.3-2.6-8.3-1.5
			C16.5,2.2,15.6,3.3,15,4c-0.6-0.8-1.5-1.8-2.6-2.2c-2.9-1.1-6-0.6-8.3,1.5C1.7,5.6,0.8,9,1.8,12.2C2.3,13.7,3.2,15,4.5,16
			l10.1,8.1c0.1,0.1,0.3,0.2,0.4,0.2c0.2,0,0.3-0.1,0.4-0.2L25.5,16c1.3-1,2.2-2.4,2.7-3.8C29.2,9,28.3,5.6,25.9,3.3z"/>
	</g>
</g>
</svg>
