<?xml version="1.0" encoding="utf-8"?>
<!-- Generator: Adobe Illustrator 18.1.1, SVG Export Plug-In . SVG Version: 6.00 Build 0)  -->
<svg version="1.1" id="Layer_1" xmlns="http://www.w3.org/2000/svg" xmlns:xlink="http://www.w3.org/1999/xlink" x="0px" y="0px"
	 viewBox="0 0 30 30" enable-background="new 0 0 30 30" xml:space="preserve">
<g id="Comment">
	<g>
		<path fill="none" stroke="#373736" stroke-width="2.7" stroke-miterlimit="10" d="M26.9,22.2c-0.1-0.4,0.1-0.8,0.2-1.1v0
			c1.5-2.9,1.8-6.1,1.1-9.3C27,6.7,22.7,2.6,17.6,1.7C13.1,0.8,8.7,2.2,5.5,5.4S0.9,13,1.7,17.5c1,5.3,5.2,9.7,10.5,10.8
			c2.7,0.6,5.4,0.3,7.9-0.7c0.3-0.1,0.7-0.2,1.2-0.1l3.8,1.2c0.2,0.1,0.4,0.1,0.6,0.1c0.5,0,1-0.2,1.3-0.5c0.5-0.5,0.8-1.2,0.6-1.9
			L26.9,22.2z"/>
	</g>
</g>
</svg>
