<?xml version="1.0" encoding="utf-8"?>
<!-- Generator: Adobe Illustrator 18.1.1, SVG Export Plug-In . SVG Version: 6.00 Build 0)  -->
<svg version="1.1" id="Layer_1" xmlns="http://www.w3.org/2000/svg" xmlns:xlink="http://www.w3.org/1999/xlink" x="0px" y="0px"
	 viewBox="0 0 40 40" enable-background="new 0 0 40 40" xml:space="preserve">
<path fill="#0095F6" d="M20.1,3.4l-5.3-3.1l-2.9,5.1H5.7v6.3l-5.4,3.1l3.1,5.3l-3.1,5.3l5.4,3.1v5.8h5.9l3.2,5.5l5.3-3.1l5.3,3.1
	l3.2-5.5h6.1v-5.9l5.2-3l-3.1-5.3l3.1-5.3l-5.2-3V5.4h-6.3l-2.9-5.1L20.1,3.4z M27.4,14.5l2.2,2.3L18.4,28.1l-6.8-6.9l2.2-2.2
	l4.5,4.5L27.4,14.5L27.4,14.5z"/>
</svg>
