<?xml version="1.0" encoding="utf-8"?>
<!-- Generator: Adobe Illustrator 18.1.1, SVG Export Plug-In . SVG Version: 6.00 Build 0)  -->
<svg version="1.1" id="Layer_1" xmlns="http://www.w3.org/2000/svg" xmlns:xlink="http://www.w3.org/1999/xlink" x="0px" y="0px"
	 viewBox="0 0 306 72" enable-background="new 0 0 306 72" xml:space="preserve">
<g>
	
		<linearGradient id="SVGID_1_" gradientUnits="userSpaceOnUse" x1="337.9039" y1="11.63" x2="405.5556" y2="11.63" gradientTransform="matrix(0.7031 0 0 0.7031 15.7656 41.2188)">
		<stop  offset="0" style="stop-color:#0C59A4"/>
		<stop  offset="1" style="stop-color:#114A8B"/>
	</linearGradient>
	<path fill="url(#SVGID_1_)" d="M299.4,53c-0.9,0.5-1.9,0.9-2.8,1.3c-3.1,1.1-6.3,1.7-9.6,1.7c-12.6,0-23.6-8.7-23.6-19.8
		c0-3,1.7-5.8,4.4-7.3c-11.4,0.5-14.4,12.4-14.4,19.3c0,19.7,18.2,21.7,22.1,21.7c2.1,0,5.3-0.6,7.2-1.2l0.3-0.1
		c7.4-2.5,13.6-7.5,17.8-14.1c0.3-0.5,0.1-1.2-0.4-1.5C300.1,52.8,299.7,52.8,299.4,53L299.4,53z"/>
	
		<radialGradient id="SVGID_2_" cx="375.2824" cy="24.2204" r="36.2021" gradientTransform="matrix(0.7031 0 0 0.668 15.7656 33.5898)" gradientUnits="userSpaceOnUse">
		<stop  offset="0.7" style="stop-color:#000000;stop-opacity:0"/>
		<stop  offset="0.9" style="stop-color:#000000;stop-opacity:0.5"/>
		<stop  offset="1" style="stop-color:#000000"/>
	</radialGradient>
	<path opacity="0.35" fill="url(#SVGID_2_)" enable-background="new    " d="M299.4,53c-0.9,0.5-1.9,0.9-2.8,1.3
		c-3.1,1.1-6.3,1.7-9.6,1.7c-12.6,0-23.6-8.7-23.6-19.8c0-3,1.7-5.8,4.4-7.3c-11.4,0.5-14.4,12.4-14.4,19.3
		c0,19.7,18.2,21.7,22.1,21.7c2.1,0,5.3-0.6,7.2-1.2l0.3-0.1c7.4-2.5,13.6-7.5,17.8-14.1c0.3-0.5,0.1-1.2-0.4-1.5
		C300.1,52.8,299.7,52.8,299.4,53L299.4,53z"/>
	
		<linearGradient id="SVGID_3_" gradientUnits="userSpaceOnUse" x1="373.5932" y1="-17.7057" x2="331.3574" y2="28.3249" gradientTransform="matrix(0.7031 0 0 0.7031 15.7656 41.2188)">
		<stop  offset="0" style="stop-color:#1B9DE2"/>
		<stop  offset="0.2" style="stop-color:#1595DF"/>
		<stop  offset="0.7" style="stop-color:#0680D7"/>
		<stop  offset="1" style="stop-color:#0078D4"/>
	</linearGradient>
	<path fill="url(#SVGID_3_)" d="M265.9,66.6c-2.4-1.5-4.4-3.4-6.1-5.7c-7-9.6-4.9-23.1,4.7-30.1c1-0.7,2.1-1.4,3.2-1.9
		c0.9-0.4,2.3-1.1,4.2-1.1c2.7,0,5.2,1.3,6.9,3.5c1.1,1.4,1.7,3.2,1.7,5c0-0.1,6.5-21.2-21.3-21.2c-11.7,0-21.3,11.1-21.3,20.9
		c0,5.2,1.1,10.3,3.2,14.9c7.4,15.7,25.3,23.4,41.7,17.9C277,70.5,270.9,69.7,265.9,66.6L265.9,66.6z"/>
	
		<radialGradient id="SVGID_4_" cx="-201.7809" cy="304.0872" r="54.3411" gradientTransform="matrix(0.1055 -0.6961 0.5625 8.437500e-002 106.75 -110.8531)" gradientUnits="userSpaceOnUse">
		<stop  offset="0.8" style="stop-color:#000000;stop-opacity:0"/>
		<stop  offset="0.9" style="stop-color:#000000;stop-opacity:0.5"/>
		<stop  offset="1" style="stop-color:#000000"/>
	</radialGradient>
	<path opacity="0.41" fill="url(#SVGID_4_)" enable-background="new    " d="M265.9,66.6c-2.4-1.5-4.4-3.4-6.1-5.7
		c-7-9.6-4.9-23.1,4.7-30.1c1-0.7,2.1-1.4,3.2-1.9c0.9-0.4,2.3-1.1,4.2-1.1c2.7,0,5.2,1.3,6.9,3.5c1.1,1.4,1.7,3.2,1.7,5
		c0-0.1,6.5-21.2-21.3-21.2c-11.7,0-21.3,11.1-21.3,20.9c0,5.2,1.1,10.3,3.2,14.9c7.4,15.7,25.3,23.4,41.7,17.9
		C277,70.5,270.9,69.7,265.9,66.6L265.9,66.6z"/>
	
		<radialGradient id="SVGID_5_" cx="217.7855" cy="-552.3918" r="76.8062" gradientTransform="matrix(-2.812500e-002 0.7031 -1.4977 -5.625000e-002 -576.5679 -169.3953)" gradientUnits="userSpaceOnUse">
		<stop  offset="0" style="stop-color:#35C1F1"/>
		<stop  offset="0.1" style="stop-color:#34C1ED"/>
		<stop  offset="0.2" style="stop-color:#2FC2DF"/>
		<stop  offset="0.3" style="stop-color:#2BC3D2"/>
		<stop  offset="0.7" style="stop-color:#36C752"/>
	</radialGradient>
	<path fill="url(#SVGID_5_)" d="M278.4,41.9c-0.2,0.3-0.9,0.7-0.9,1.5c0,0.7,0.5,1.4,1.3,1.9c3.8,2.7,11,2.3,11.1,2.3
		c2.8,0,5.6-0.8,8.1-2.2c5-2.9,8.1-8.3,8.1-14.1c0.1-6-2.1-10-3-11.7c-5.7-11-17.9-17.4-31.1-17.4c-18.7,0-33.9,15-34.2,33.7
		c0.1-9.7,9.8-17.6,21.3-17.6c0.9,0,6.3,0.1,11.2,2.7c3.5,1.7,6.3,4.4,8.2,7.8c1.6,2.8,1.9,6.4,1.9,7.9
		C280.4,38,279.7,40.2,278.4,41.9L278.4,41.9z"/>
	
		<radialGradient id="SVGID_6_" cx="497.5056" cy="-546.262" r="36.9231" gradientTransform="matrix(0.1969 0.675 -0.5484 0.1617 -95.7922 -224.668)" gradientUnits="userSpaceOnUse">
		<stop  offset="0" style="stop-color:#66EB6E"/>
		<stop  offset="1" style="stop-color:#66EB6E;stop-opacity:0"/>
	</radialGradient>
	<path fill="url(#SVGID_6_)" d="M278.4,41.9c-0.2,0.3-0.9,0.7-0.9,1.5c0,0.7,0.5,1.4,1.3,1.9c3.8,2.7,11,2.3,11.1,2.3
		c2.8,0,5.6-0.8,8.1-2.2c5-2.9,8.1-8.3,8.1-14.1c0.1-6-2.1-10-3-11.7c-5.7-11-17.9-17.4-31.1-17.4c-18.7,0-33.9,15-34.2,33.7
		c0.1-9.7,9.8-17.6,21.3-17.6c0.9,0,6.3,0.1,11.2,2.7c3.5,1.7,6.3,4.4,8.2,7.8c1.6,2.8,1.9,6.4,1.9,7.9
		C280.4,38,279.7,40.2,278.4,41.9L278.4,41.9z"/>
</g>
<g>
	<g opacity="0.53" enable-background="new    ">
		<path d="M148.3,38.4c0,17.7-14.9,32.1-33.3,32.1h0c-18.4,0-33.3-14.4-33.3-32.1S96.5,6.3,115,6.3C133.4,6.3,148.3,20.7,148.3,38.4
			z"/>
	</g>
	
		<linearGradient id="SVGID_7_" gradientUnits="userSpaceOnUse" x1="434.0009" y1="-55.8524" x2="434.0009" y2="13.5779" gradientTransform="matrix(0.9965 0 0 -0.9965 -317.5263 14.5303)">
		<stop  offset="0" style="stop-color:#BDBDBD"/>
		<stop  offset="1" style="stop-color:#FFFFFF"/>
	</linearGradient>
	<path fill="url(#SVGID_7_)" stroke="#CDCDCD" stroke-width="9.301235e-002" stroke-linecap="round" stroke-linejoin="round" d="
		M149.5,35.6c0,19.1-15.5,34.6-34.6,34.6l0,0c-19.1,0-34.6-15.5-34.6-34.6S95.8,1,115,1l0,0C134.1,1,149.5,16.5,149.5,35.6
		L149.5,35.6L149.5,35.6z"/>
	
		<radialGradient id="SVGID_8_" cx="437.2435" cy="-16.2198" r="31.9947" gradientTransform="matrix(1.0812 0 0 -1.0812 -357.6604 13.4074)" gradientUnits="userSpaceOnUse">
		<stop  offset="0" style="stop-color:#06C2E7"/>
		<stop  offset="0.25" style="stop-color:#0DB8EC"/>
		<stop  offset="0.5" style="stop-color:#12AEF1"/>
		<stop  offset="0.75" style="stop-color:#1F86F9"/>
		<stop  offset="1" style="stop-color:#107DDD"/>
	</radialGradient>
	<path fill="url(#SVGID_8_)" d="M146.8,35.6c0,17.6-14.3,31.9-31.9,31.9l0,0c-17.6,0-31.9-14.3-31.9-31.9l0,0
		C83.1,18,97.3,3.7,115,3.7l0,0C132.6,3.7,146.8,18,146.8,35.6L146.8,35.6z"/>
	<path fill="#F4F2F3" d="M115,5.4c-0.3,0-0.5,0.2-0.5,0.5v5.4c0,0.3,0.2,0.5,0.5,0.5c0.3,0,0.5-0.2,0.5-0.5V5.8
		C115.4,5.6,115.2,5.4,115,5.4z M111.9,5.6C111.9,5.6,111.8,5.6,111.9,5.6c-0.4,0-0.5,0.3-0.5,0.5l0.2,2.2c0,0.3,0.3,0.4,0.5,0.4
		c0.3,0,0.4-0.3,0.4-0.5L112.3,6C112.3,5.8,112.1,5.6,111.9,5.6L111.9,5.6z M118,5.6c-0.2,0-0.4,0.2-0.4,0.4l-0.2,2.2
		c0,0.3,0.2,0.5,0.4,0.5c0.3,0,0.5-0.2,0.5-0.4l0.2-2.2C118.5,5.8,118.4,5.6,118,5.6C118.1,5.6,118,5.6,118,5.6L118,5.6z M108.8,6
		C108.8,6,108.7,6,108.8,6c-0.3,0.1-0.5,0.3-0.5,0.6l1.1,5.2c0.1,0.3,0.3,0.4,0.6,0.4c0.3-0.1,0.4-0.3,0.4-0.6l-1.1-5.2
		C109.2,6.2,109,6,108.8,6L108.8,6z M121.1,6c-0.2,0-0.4,0.1-0.5,0.4l-1.1,5.2c-0.1,0.3,0.1,0.5,0.4,0.6c0.3,0.1,0.5-0.1,0.6-0.4
		l1.1-5.2C121.6,6.3,121.5,6.1,121.1,6C121.2,6,121.2,6,121.1,6L121.1,6z M105.8,6.9c-0.1,0-0.1,0-0.2,0c-0.2,0.1-0.4,0.3-0.3,0.6
		l0.7,2.1c0.1,0.2,0.3,0.4,0.6,0.3c0.2-0.1,0.4-0.3,0.3-0.6l-0.7-2.1C106.1,7,106,6.9,105.8,6.9L105.8,6.9z M124.1,6.9
		c-0.2,0-0.3,0.1-0.4,0.3L123,9.3c-0.1,0.2,0.1,0.5,0.3,0.6c0.2,0.1,0.5-0.1,0.6-0.3l0.7-2.1c0.1-0.2-0.1-0.5-0.3-0.6
		C124.2,6.9,124.2,6.9,124.1,6.9L124.1,6.9z M102.9,7.9c-0.1,0-0.1,0-0.2,0c-0.2,0.1-0.3,0.4-0.2,0.6l2.2,4.9
		c0.1,0.2,0.4,0.3,0.6,0.2c0.2-0.1,0.3-0.4,0.2-0.6l-2.2-4.9C103.2,8,103,7.9,102.9,7.9L102.9,7.9z M127.1,8c-0.2,0-0.4,0.1-0.4,0.3
		l-2.2,4.9c-0.1,0.2,0,0.5,0.2,0.6c0.2,0.1,0.5,0,0.6-0.2l2.2-4.9c0.1-0.2,0-0.5-0.2-0.6C127.2,8,127.1,8,127.1,8L127.1,8z
		 M100.1,9.4c-0.1,0-0.2,0-0.3,0.1c-0.2,0.1-0.3,0.4-0.2,0.6l1.1,2c0.1,0.2,0.4,0.3,0.6,0.2c0.2-0.1,0.3-0.4,0.2-0.6l-1.1-2
		C100.4,9.5,100.3,9.4,100.1,9.4L100.1,9.4z M129.8,9.4c-0.1,0-0.3,0.1-0.4,0.2l-1.1,2c-0.1,0.2-0.1,0.5,0.2,0.6
		c0.2,0.1,0.5,0.1,0.6-0.2l1.1-2c0.1-0.2,0.1-0.5-0.2-0.6C130,9.4,129.9,9.4,129.8,9.4L129.8,9.4z M97.5,11c-0.1,0-0.2,0-0.3,0.1
		c-0.2,0.2-0.3,0.4-0.1,0.6l3.1,4.3c0.2,0.2,0.4,0.3,0.6,0.1c0.2-0.2,0.3-0.4,0.1-0.6l-3.1-4.3C97.8,11.1,97.6,11,97.5,11L97.5,11z
		 M132.5,11.1c-0.1,0-0.3,0.1-0.4,0.2l-3.2,4.3c-0.2,0.2-0.1,0.5,0.1,0.6c0.2,0.2,0.5,0.1,0.6-0.1l3.2-4.3c0.2-0.2,0.1-0.5-0.1-0.6
		C132.7,11.1,132.6,11.1,132.5,11.1L132.5,11.1z M95.1,13c-0.1,0-0.2,0-0.3,0.1c-0.2,0.2-0.2,0.5,0,0.7l1.5,1.7
		c0.2,0.2,0.5,0.2,0.7,0c0.2-0.2,0.2-0.5,0-0.7l-1.5-1.7C95.3,13.1,95.2,13,95.1,13L95.1,13z M134.8,13c-0.1,0-0.2,0.1-0.3,0.2
		l-1.5,1.7c-0.2,0.2-0.2,0.5,0,0.7c0.2,0.2,0.5,0.2,0.7,0l1.5-1.7c0.2-0.2,0.2-0.5,0-0.7C135.1,13.1,134.9,13,134.8,13L134.8,13z
		 M92.8,15.2c-0.1,0-0.2,0.1-0.3,0.2c-0.2,0.2-0.2,0.5,0,0.7l4,3.6c0.2,0.2,0.5,0.2,0.7,0c0.2-0.2,0.2-0.5,0-0.7l-4-3.6
		C93.1,15.3,92.9,15.2,92.8,15.2L92.8,15.2z M137.1,15.2c-0.1,0-0.2,0-0.3,0.1l-4,3.6c-0.2,0.2-0.2,0.5,0,0.7c0.2,0.2,0.5,0.2,0.7,0
		l4-3.6c0.2-0.2,0.2-0.5,0-0.7C137.3,15.3,137.2,15.2,137.1,15.2L137.1,15.2z M90.9,17.7c-0.1,0-0.3,0.1-0.4,0.2
		c-0.2,0.2-0.1,0.5,0.1,0.6l1.8,1.3c0.2,0.2,0.5,0.1,0.6-0.1c0.2-0.2,0.1-0.5-0.1-0.6l-1.8-1.3C91.1,17.7,91,17.7,90.9,17.7
		L90.9,17.7z M139,17.7c-0.1,0-0.2,0-0.3,0.1l-1.8,1.3c-0.2,0.2-0.3,0.4-0.1,0.6c0.2,0.2,0.4,0.3,0.6,0.1l1.8-1.3
		c0.2-0.2,0.3-0.4,0.1-0.6C139.3,17.7,139.1,17.7,139,17.7L139,17.7z M89.2,20.3c-0.1,0-0.3,0.1-0.4,0.2c-0.1,0.2-0.1,0.5,0.2,0.6
		l4.6,2.7c0.2,0.1,0.5,0.1,0.6-0.2c0.1-0.2,0.1-0.5-0.2-0.6l-4.6-2.7C89.3,20.3,89.2,20.2,89.2,20.3L89.2,20.3z M140.8,20.3
		c-0.1,0-0.2,0-0.3,0.1l-4.6,2.7c-0.2,0.1-0.3,0.4-0.2,0.6c0.1,0.2,0.4,0.3,0.6,0.2l4.6-2.7c0.2-0.1,0.3-0.4,0.2-0.6
		C141,20.3,140.9,20.3,140.8,20.3L140.8,20.3z M87.8,23c-0.2,0-0.4,0.1-0.4,0.3c-0.1,0.2,0,0.5,0.2,0.6l2.1,0.9
		c0.2,0.1,0.5,0,0.6-0.2c0.1-0.2,0-0.5-0.2-0.6L88,23.1C87.9,23,87.9,23,87.8,23z M142.1,23c-0.1,0-0.1,0-0.2,0l-2.1,0.9
		c-0.2,0.1-0.3,0.4-0.2,0.6c0.1,0.2,0.4,0.3,0.6,0.2l2.1-0.9c0.2-0.1,0.3-0.4,0.2-0.6C142.5,23.1,142.3,23,142.1,23L142.1,23z
		 M86.6,25.9c-0.2,0-0.3,0.1-0.4,0.3c-0.1,0.2,0.1,0.5,0.3,0.6l5.1,1.7c0.2,0.1,0.5-0.1,0.6-0.3c0.1-0.2-0.1-0.5-0.3-0.6l-5.1-1.7
		C86.7,25.9,86.7,25.9,86.6,25.9L86.6,25.9z M143.3,25.9c-0.1,0-0.1,0-0.2,0l-5.1,1.7c-0.2,0.1-0.4,0.3-0.3,0.6
		c0.1,0.2,0.3,0.4,0.6,0.3l5.1-1.7c0.2-0.1,0.4-0.3,0.3-0.6C143.6,26.1,143.5,25.9,143.3,25.9L143.3,25.9z M85.9,28.9
		c-0.2,0-0.4,0.1-0.5,0.4c-0.1,0.3,0.1,0.5,0.4,0.6l2.2,0.5c0.3,0.1,0.5-0.1,0.6-0.4c0.1-0.3-0.1-0.5-0.4-0.6L85.9,28.9
		C85.9,29,85.9,28.9,85.9,28.9L85.9,28.9z M144,29C144,29,144,29,144,29l-2.3,0.5c-0.3,0.1-0.4,0.3-0.4,0.6c0.1,0.3,0.3,0.4,0.6,0.4
		l2.2-0.5c0.3-0.1,0.4-0.3,0.4-0.6C144.4,29.1,144.2,29,144,29L144,29z M85.3,32c-0.2,0-0.4,0.2-0.4,0.4c0,0.3,0.2,0.5,0.4,0.5
		l5.3,0.6c0.3,0,0.5-0.2,0.5-0.4c0-0.3-0.2-0.5-0.4-0.5L85.3,32C85.4,32,85.3,32,85.3,32L85.3,32z M144.6,32
		C144.6,32,144.5,32,144.6,32l-5.4,0.6c-0.3,0-0.4,0.3-0.4,0.5c0,0.3,0.3,0.4,0.5,0.4l5.3-0.6c0.3,0,0.4-0.3,0.4-0.5
		C145,32.2,144.8,32.1,144.6,32L144.6,32z M85.2,35.1c-0.3,0-0.5,0.2-0.5,0.5c0,0.3,0.2,0.5,0.5,0.5h2.3c0.3,0,0.5-0.2,0.5-0.5
		c0-0.3-0.2-0.5-0.5-0.5H85.2z M142.4,35.1c-0.3,0-0.5,0.2-0.5,0.5c0,0.3,0.2,0.5,0.5,0.5h2.3c0.3,0,0.5-0.2,0.5-0.5
		c0-0.3-0.2-0.5-0.5-0.5H142.4z M90.7,37.7C90.7,37.7,90.7,37.7,90.7,37.7l-5.4,0.6c-0.3,0-0.4,0.3-0.4,0.5c0,0.3,0.3,0.4,0.5,0.4
		l5.3-0.6c0.3,0,0.4-0.3,0.4-0.5C91.1,37.9,91,37.7,90.7,37.7L90.7,37.7z M139.2,37.7c-0.2,0-0.4,0.2-0.4,0.4c0,0.3,0.2,0.5,0.4,0.5
		l5.3,0.6c0.3,0,0.5-0.2,0.5-0.4c0-0.3-0.2-0.5-0.4-0.5L139.2,37.7C139.2,37.7,139.2,37.7,139.2,37.7L139.2,37.7z M88.1,40.8
		C88,40.8,88,40.8,88.1,40.8l-2.3,0.5c-0.3,0.1-0.4,0.3-0.4,0.6c0.1,0.3,0.3,0.4,0.6,0.4l2.2-0.5c0.3-0.1,0.4-0.3,0.4-0.6
		C88.5,41,88.3,40.8,88.1,40.8L88.1,40.8z M141.8,40.8c-0.2,0-0.4,0.1-0.5,0.4c-0.1,0.3,0.1,0.5,0.4,0.6l2.2,0.5
		c0.3,0.1,0.5-0.1,0.6-0.4c0.1-0.3-0.1-0.5-0.4-0.6L141.8,40.8C141.9,40.8,141.9,40.8,141.8,40.8L141.8,40.8z M91.8,42.7
		c-0.1,0-0.1,0-0.2,0l-5.1,1.7c-0.2,0.1-0.4,0.3-0.3,0.6c0.1,0.2,0.3,0.4,0.6,0.3l5.1-1.7c0.2-0.1,0.4-0.3,0.3-0.6
		C92.1,42.8,92,42.7,91.8,42.7L91.8,42.7z M138.1,42.7c-0.2,0-0.3,0.1-0.4,0.3c-0.1,0.2,0.1,0.5,0.3,0.6l5.1,1.7
		c0.2,0.1,0.5-0.1,0.6-0.3c0.1-0.2-0.1-0.5-0.3-0.6l-5.1-1.7C138.2,42.7,138.2,42.7,138.1,42.7L138.1,42.7z M89.8,46.3
		c-0.1,0-0.1,0-0.2,0l-2.1,0.9c-0.2,0.1-0.3,0.4-0.2,0.6c0.1,0.2,0.4,0.3,0.6,0.2l2.1-0.9c0.2-0.1,0.3-0.4,0.2-0.6
		C90.2,46.4,90,46.3,89.8,46.3L89.8,46.3z M140,46.3c-0.2,0-0.4,0.1-0.4,0.3c-0.1,0.2,0,0.5,0.2,0.6l2.1,0.9c0.2,0.1,0.5,0,0.6-0.2
		c0.1-0.2,0-0.5-0.2-0.6l-2.1-0.9C140.2,46.3,140.1,46.3,140,46.3L140,46.3z M93.9,47.3c-0.1,0-0.2,0-0.3,0.1L89,50.1
		c-0.2,0.1-0.3,0.4-0.2,0.6c0.1,0.2,0.4,0.3,0.6,0.2l4.6-2.7c0.2-0.1,0.3-0.4,0.2-0.6C94.1,47.4,94,47.3,93.9,47.3L93.9,47.3z
		 M136,47.3c-0.1,0-0.3,0.1-0.4,0.2c-0.1,0.2-0.1,0.5,0.2,0.6l4.6,2.7c0.2,0.1,0.5,0.1,0.6-0.2c0.1-0.2,0.1-0.5-0.2-0.6l-4.6-2.7
		C136.2,47.3,136.1,47.3,136,47.3L136,47.3z M92.7,51.3c-0.1,0-0.2,0-0.3,0.1l-1.8,1.3c-0.2,0.2-0.3,0.4-0.1,0.6
		c0.2,0.2,0.4,0.3,0.6,0.1l1.8-1.3c0.2-0.2,0.3-0.4,0.1-0.6C93,51.3,92.8,51.3,92.7,51.3L92.7,51.3z M137.2,51.3
		c-0.1,0-0.3,0.1-0.4,0.2c-0.2,0.2-0.1,0.5,0.1,0.6l1.8,1.3c0.2,0.2,0.5,0.1,0.6-0.1c0.2-0.2,0.1-0.5-0.1-0.6l-1.8-1.3
		C137.4,51.3,137.3,51.3,137.2,51.3L137.2,51.3z M96.8,51.4c-0.1,0-0.2,0-0.3,0.1l-4,3.6c-0.2,0.2-0.2,0.5,0,0.7
		c0.2,0.2,0.5,0.2,0.7,0l4-3.6c0.2-0.2,0.2-0.5,0-0.7C97.1,51.5,97,51.4,96.8,51.4z M133.1,51.5c-0.1,0-0.2,0.1-0.3,0.2
		c-0.2,0.2-0.2,0.5,0,0.7l4,3.6c0.2,0.2,0.5,0.2,0.7,0c0.2-0.2,0.2-0.5,0-0.7l-4-3.6C133.3,51.5,133.2,51.4,133.1,51.5L133.1,51.5z
		 M100.6,54.9c-0.1,0-0.3,0.1-0.4,0.2l-3.2,4.3c-0.2,0.2-0.1,0.5,0.1,0.6c0.2,0.2,0.5,0.1,0.6-0.1l3.2-4.3c0.2-0.2,0.1-0.5-0.1-0.6
		C100.8,54.9,100.7,54.9,100.6,54.9z M129.3,54.9c-0.1,0-0.2,0-0.3,0.1c-0.2,0.2-0.3,0.4-0.1,0.6L132,60c0.2,0.2,0.4,0.3,0.6,0.1
		c0.2-0.2,0.3-0.4,0.1-0.6l-3.1-4.3C129.6,54.9,129.4,54.9,129.3,54.9L129.3,54.9z M96.5,55.5c-0.1,0-0.2,0.1-0.3,0.2l-1.5,1.7
		c-0.2,0.2-0.2,0.5,0,0.7c0.2,0.2,0.5,0.2,0.7,0l1.5-1.7c0.2-0.2,0.2-0.5,0-0.7C96.8,55.6,96.7,55.5,96.5,55.5L96.5,55.5z
		 M133.4,55.5c-0.1,0-0.2,0-0.3,0.1c-0.2,0.2-0.2,0.5,0,0.7l1.5,1.7c0.2,0.2,0.5,0.2,0.7,0c0.2-0.2,0.2-0.5,0-0.7l-1.5-1.7
		C133.6,55.6,133.5,55.6,133.4,55.5L133.4,55.5z M105,57.4c-0.2,0-0.4,0.1-0.4,0.3l-2.2,4.9c-0.1,0.2,0,0.5,0.2,0.6
		c0.2,0.1,0.5,0,0.6-0.2l2.2-4.9c0.1-0.2,0-0.5-0.2-0.6C105.1,57.4,105.1,57.4,105,57.4L105,57.4z M124.9,57.4c-0.1,0-0.1,0-0.2,0
		c-0.2,0.1-0.3,0.4-0.2,0.6l2.2,4.9c0.1,0.2,0.4,0.3,0.6,0.2c0.2-0.1,0.3-0.4,0.2-0.6l-2.2-4.9C125.2,57.5,125,57.4,124.9,57.4
		L124.9,57.4z M101.2,58.9c-0.1,0-0.3,0.1-0.4,0.2l-1.1,2c-0.1,0.2-0.1,0.5,0.2,0.6c0.2,0.1,0.5,0.1,0.6-0.2l1.1-2
		c0.1-0.2,0.1-0.5-0.2-0.6C101.4,58.9,101.3,58.9,101.2,58.9L101.2,58.9z M128.7,58.9c-0.1,0-0.2,0-0.3,0.1
		c-0.2,0.1-0.3,0.4-0.2,0.6l1.1,2c0.1,0.2,0.4,0.3,0.6,0.2c0.2-0.1,0.3-0.4,0.2-0.6l-1.1-2C129,59,128.9,58.9,128.7,58.9L128.7,58.9
		z M109.9,59c-0.2,0-0.4,0.1-0.5,0.4l-1.1,5.2c-0.1,0.3,0.1,0.5,0.4,0.6c0.3,0.1,0.5-0.1,0.6-0.4l1.1-5.2
		C110.4,59.3,110.2,59.1,109.9,59C109.9,59,109.9,59,109.9,59L109.9,59z M120,59C120,59,119.9,59,120,59c-0.3,0.1-0.5,0.3-0.5,0.6
		l1.1,5.2c0.1,0.3,0.3,0.4,0.6,0.4c0.3-0.1,0.4-0.3,0.4-0.6l-1.1-5.2C120.4,59.1,120.2,59,120,59L120,59z M115,59.5
		c-0.3,0-0.5,0.2-0.5,0.5v5.4c0,0.3,0.2,0.5,0.5,0.5c0.3,0,0.5-0.2,0.5-0.5V60C115.4,59.7,115.2,59.5,115,59.5z M106.4,61.3
		c-0.2,0-0.3,0.1-0.4,0.3l-0.7,2.1c-0.1,0.2,0.1,0.5,0.3,0.6c0.2,0.1,0.5-0.1,0.6-0.3l0.7-2.1c0.1-0.2-0.1-0.5-0.3-0.6
		C106.5,61.3,106.5,61.2,106.4,61.3L106.4,61.3z M123.5,61.3c-0.1,0-0.1,0-0.2,0c-0.2,0.1-0.4,0.3-0.3,0.6l0.7,2.1
		c0.1,0.2,0.3,0.4,0.6,0.3c0.2-0.1,0.4-0.3,0.3-0.6l-0.7-2.1C123.8,61.4,123.7,61.3,123.5,61.3L123.5,61.3z M112,62.5
		c-0.2,0-0.4,0.2-0.4,0.4l-0.2,2.2c0,0.3,0.2,0.5,0.4,0.5c0.3,0,0.5-0.2,0.5-0.4l0.2-2.2C112.6,62.7,112.4,62.5,112,62.5
		C112.1,62.4,112.1,62.4,112,62.5L112,62.5z M117.9,62.5C117.8,62.4,117.8,62.4,117.9,62.5c-0.4,0-0.5,0.3-0.5,0.5l0.2,2.2
		c0,0.3,0.3,0.4,0.5,0.4c0.3,0,0.4-0.3,0.4-0.5l-0.2-2.2C118.2,62.6,118.1,62.5,117.9,62.5L117.9,62.5z"/>
	<g opacity="0.409" enable-background="new    ">
		<polygon points="136.7,17 111.3,31.8 95.2,57.1 118.7,39.7 		"/>
	</g>
	<path fill="#FF5150" d="M118.6,39.4l-7.3-7.6l25.9-17.4L118.6,39.4z"/>
	<path fill="#F1F1F1" d="M118.6,39.4l-7.3-7.6l-18.6,25L118.6,39.4z"/>
	<path opacity="0.243" enable-background="new    " d="M92.7,56.8l25.9-17.4l18.6-25L92.7,56.8z"/>
</g>
<g transform="translate(90.669 -507.469)">
	<path fill="#FFFFFF" d="M-55.7,560.5c9.4,0,17-7.6,17-17c0-9.4-7.6-17-17-17s-17,7.6-17,17C-72.7,552.9-65.1,560.5-55.7,560.5z"/>
	<path fill="#229342" d="M-70.4,552l-14.7-25.5c-3,5.2-4.5,11-4.5,17c0,6,1.6,11.8,4.5,17c3,5.2,7.3,9.4,12.4,12.4
		c5.2,3,11,4.5,17,4.5L-41,552v0c-1.5,2.6-3.6,4.7-6.2,6.2c-5.3,3-11.7,3-17,0C-66.8,556.7-68.9,554.6-70.4,552L-70.4,552z"/>
	<path fill="#FBC116" d="M-41,552l-14.7,25.5c6,0,11.8-1.6,17-4.5c5.2-3,9.4-7.3,12.4-12.4c3-5.2,4.5-11,4.5-17c0-6-1.6-11.8-4.6-17
		h-29.4l0,0c3,0,5.9,0.8,8.5,2.3c2.6,1.5,4.7,3.6,6.2,6.2C-38,540.3-38,546.8-41,552L-41,552z"/>
	<path fill="#1A73E8" d="M-55.7,557c7.4,0,13.4-6,13.4-13.4s-6-13.4-13.4-13.4s-13.4,6-13.4,13.4S-63.1,557-55.7,557z"/>
	<path fill="#E33B2E" d="M-55.7,526.6h29.4c-3-5.2-7.3-9.4-12.4-12.4c-5.2-3-11-4.5-17-4.5c-6,0-11.8,1.6-17,4.6
		c-5.2,3-9.4,7.3-12.4,12.4l14.7,25.5l0,0c-3-5.3-3-11.7,0-17c1.5-2.6,3.6-4.7,6.2-6.2C-61.6,527.3-58.7,526.6-55.7,526.6
		L-55.7,526.6z"/>
</g>
<g transform="matrix(.9819843 0 0 .9819843 .6974849 .7199239)">
	
		<linearGradient id="SVGID_9_" gradientUnits="userSpaceOnUse" x1="227.6067" y1="62.1505" x2="170.5521" y2="7.1025" gradientTransform="matrix(0.982 0 0 -0.982 0.5716 72.3037)">
		<stop  offset="4.800000e-002" style="stop-color:#FFF44F"/>
		<stop  offset="0.111" style="stop-color:#FFE847"/>
		<stop  offset="0.225" style="stop-color:#FFC830"/>
		<stop  offset="0.368" style="stop-color:#FF980E"/>
		<stop  offset="0.401" style="stop-color:#FF8B16"/>
		<stop  offset="0.462" style="stop-color:#FF672A"/>
		<stop  offset="0.534" style="stop-color:#FF3647"/>
		<stop  offset="0.705" style="stop-color:#E31587"/>
	</linearGradient>
	<path fill="url(#SVGID_9_)" d="M228.6,24.1c-1.5-3.6-4.5-7.5-6.9-8.7c1.7,3.3,2.9,6.8,3.5,10.4l0,0.1c-3.9-9.7-10.5-13.6-15.9-22.1
		c-0.3-0.4-0.5-0.9-0.8-1.3c-0.2-0.3-0.3-0.5-0.4-0.7c-0.2-0.4-0.4-0.9-0.5-1.4c0,0,0-0.1-0.1-0.1c0,0,0,0-0.1,0c0,0,0,0,0,0
		c0,0,0,0,0,0l0,0c-8.6,5.1-11.6,14.4-11.8,19.1c-3.4,0.2-6.7,1.5-9.5,3.6c-0.3-0.2-0.6-0.5-0.9-0.7c-0.8-2.7-0.8-5.6-0.1-8.4
		c-3.2,1.5-6,3.7-8.3,6.4h0c-1.4-1.7-1.3-7.4-1.2-8.6c-0.4,0.2-0.8,0.4-1.1,0.6c-1.2,0.9-2.3,1.8-3.4,2.9c-1.2,1.2-2.3,2.5-3.2,3.9
		v0v0c-2.2,3.1-3.8,6.7-4.6,10.4l0,0.2c-0.1,0.3-0.3,1.8-0.3,2.1c0,0,0,0,0,0.1c-0.3,1.6-0.5,3.1-0.6,4.7v0.2
		c0,19,15.4,34.3,34.4,34.3c16.7,0,31-12,33.8-28.5c0.1-0.4,0.1-0.9,0.2-1.3C231.6,35.5,230.8,29.6,228.6,24.1L228.6,24.1z M189,51
		c0.2,0.1,0.3,0.2,0.5,0.2l0,0C189.4,51.2,189.2,51.1,189,51z M225.2,25.9L225.2,25.9L225.2,25.9L225.2,25.9z"/>
	
		<radialGradient id="SVGID_10_" cx="-7896.25" cy="8745.5869" r="71.6475" gradientTransform="matrix(0.982 0 0 -0.982 7975.874 8596.3105)" gradientUnits="userSpaceOnUse">
		<stop  offset="0.129" style="stop-color:#FFBD4F"/>
		<stop  offset="0.186" style="stop-color:#FFAC31"/>
		<stop  offset="0.247" style="stop-color:#FF9D17"/>
		<stop  offset="0.283" style="stop-color:#FF980E"/>
		<stop  offset="0.403" style="stop-color:#FF563B"/>
		<stop  offset="0.467" style="stop-color:#FF3750"/>
		<stop  offset="0.71" style="stop-color:#F5156C"/>
		<stop  offset="0.782" style="stop-color:#EB0878"/>
		<stop  offset="0.86" style="stop-color:#E50080"/>
	</radialGradient>
	<path fill="url(#SVGID_10_)" d="M228.6,24.1c-1.5-3.6-4.5-7.5-6.9-8.7c1.7,3.3,2.9,6.8,3.5,10.4v0l0,0c2.6,7.6,2.3,15.9-1.1,23.2
		c-3.9,8.5-13.5,17.1-28.4,16.7c-16.1-0.5-30.3-12.4-33-28.1c-0.5-2.5,0-3.7,0.2-5.7c-0.3,1.6-0.5,3.1-0.6,4.7v0.2
		c0,19,15.4,34.3,34.4,34.3c16.7,0,31-12,33.8-28.5c0.1-0.4,0.1-0.9,0.2-1.3C231.6,35.5,230.8,29.6,228.6,24.1L228.6,24.1z"/>
	
		<radialGradient id="SVGID_11_" cx="-7923.3398" cy="8715.7881" r="71.6475" gradientTransform="matrix(0.982 0 0 -0.982 7975.874 8596.3105)" gradientUnits="userSpaceOnUse">
		<stop  offset="0.3" style="stop-color:#960E18"/>
		<stop  offset="0.351" style="stop-color:#B11927;stop-opacity:0.74"/>
		<stop  offset="0.435" style="stop-color:#DB293D;stop-opacity:0.343"/>
		<stop  offset="0.497" style="stop-color:#F5334B;stop-opacity:9.400000e-002"/>
		<stop  offset="0.53" style="stop-color:#FF3750;stop-opacity:0"/>
	</radialGradient>
	<path fill="url(#SVGID_11_)" d="M228.6,24.1c-1.5-3.6-4.5-7.5-6.9-8.7c1.7,3.3,2.9,6.8,3.5,10.4v0l0,0c2.6,7.6,2.3,15.9-1.1,23.2
		c-3.9,8.5-13.5,17.1-28.4,16.7c-16.1-0.5-30.3-12.4-33-28.1c-0.5-2.5,0-3.7,0.2-5.7c-0.3,1.6-0.5,3.1-0.6,4.7v0.2
		c0,19,15.4,34.3,34.4,34.3c16.7,0,31-12,33.8-28.5c0.1-0.4,0.1-0.9,0.2-1.3C231.6,35.5,230.8,29.6,228.6,24.1L228.6,24.1z"/>
	
		<radialGradient id="SVGID_12_" cx="-7914.3096" cy="8761.8408" r="51.9001" gradientTransform="matrix(0.982 0 0 -0.982 7975.874 8596.3105)" gradientUnits="userSpaceOnUse">
		<stop  offset="0.132" style="stop-color:#FFF44F"/>
		<stop  offset="0.252" style="stop-color:#FFDC3E"/>
		<stop  offset="0.506" style="stop-color:#FF9D12"/>
		<stop  offset="0.526" style="stop-color:#FF980E"/>
	</radialGradient>
	<path fill="url(#SVGID_12_)" d="M211.9,28.1c0.1,0.1,0.1,0.1,0.2,0.2c-0.9-1.5-1.9-2.9-3.2-4.2c-10.7-10.7-2.8-23.2-1.5-23.8l0,0
		c-8.6,5.1-11.6,14.4-11.8,19.1c0.4,0,0.8-0.1,1.2-0.1C203.1,19.3,208.9,22.7,211.9,28.1L211.9,28.1z"/>
	
		<radialGradient id="SVGID_13_" cx="-7931.4668" cy="8696.8252" r="34.1124" gradientTransform="matrix(0.982 0 0 -0.982 7975.874 8596.3105)" gradientUnits="userSpaceOnUse">
		<stop  offset="0.353" style="stop-color:#3A8EE6"/>
		<stop  offset="0.472" style="stop-color:#5C79F0"/>
		<stop  offset="0.669" style="stop-color:#9059FF"/>
		<stop  offset="1" style="stop-color:#C139E6"/>
	</radialGradient>
	<path fill="url(#SVGID_13_)" d="M196.9,30.3c-0.1,0.9-3.1,3.8-4.1,3.8c-9.8,0-11.4,5.9-11.4,5.9c0.4,5,3.9,9.1,8.1,11.2
		c0.2,0.1,0.4,0.2,0.6,0.3c0.3,0.1,0.7,0.3,1,0.4c1.4,0.5,2.9,0.8,4.5,0.9c17.1,0.8,20.4-20.5,8.1-26.7c2.9-0.4,5.9,0.3,8.3,2
		c-3.1-5.4-8.8-8.8-15.1-8.8c-0.4,0-0.8,0-1.2,0.1c-3.4,0.2-6.7,1.5-9.5,3.6c0.5,0.4,1.1,1,2.4,2.3C190.9,27.6,196.9,30,196.9,30.3
		L196.9,30.3z"/>
	
		<radialGradient id="SVGID_14_" cx="-7937.4448" cy="8714.9268" r="18.0892" gradientTransform="matrix(0.9545 -0.2308 -0.27 -1.1175 10128.374 7938.6128)" gradientUnits="userSpaceOnUse">
		<stop  offset="0.206" style="stop-color:#9059FF;stop-opacity:0"/>
		<stop  offset="0.278" style="stop-color:#8C4FF3;stop-opacity:6.400000e-002"/>
		<stop  offset="0.747" style="stop-color:#7716A8;stop-opacity:0.45"/>
		<stop  offset="0.975" style="stop-color:#6E008B;stop-opacity:0.6"/>
	</radialGradient>
	<path fill="url(#SVGID_14_)" d="M196.9,30.3c-0.1,0.9-3.1,3.8-4.1,3.8c-9.8,0-11.4,5.9-11.4,5.9c0.4,5,3.9,9.1,8.1,11.2
		c0.2,0.1,0.4,0.2,0.6,0.3c0.3,0.1,0.7,0.3,1,0.4c1.4,0.5,2.9,0.8,4.5,0.9c17.1,0.8,20.4-20.5,8.1-26.7c2.9-0.4,5.9,0.3,8.3,2
		c-3.1-5.4-8.8-8.8-15.1-8.8c-0.4,0-0.8,0-1.2,0.1c-3.4,0.2-6.7,1.5-9.5,3.6c0.5,0.4,1.1,1,2.4,2.3C190.9,27.6,196.9,30,196.9,30.3
		L196.9,30.3z"/>
	
		<radialGradient id="SVGID_15_" cx="-7924.2427" cy="8748.2959" r="24.5446" gradientTransform="matrix(0.982 0 0 -0.982 7975.874 8596.3105)" gradientUnits="userSpaceOnUse">
		<stop  offset="0" style="stop-color:#FFE226"/>
		<stop  offset="0.121" style="stop-color:#FFDB27"/>
		<stop  offset="0.295" style="stop-color:#FFC82A"/>
		<stop  offset="0.502" style="stop-color:#FFA930"/>
		<stop  offset="0.732" style="stop-color:#FF7E37"/>
		<stop  offset="0.792" style="stop-color:#FF7139"/>
	</radialGradient>
	<path fill="url(#SVGID_15_)" d="M184.6,21.9c0.3,0.2,0.5,0.3,0.7,0.5c-0.8-2.7-0.8-5.6-0.1-8.4c-3.2,1.5-6,3.7-8.3,6.4
		C177.1,20.4,182.1,20.3,184.6,21.9z"/>
	
		<radialGradient id="SVGID_16_" cx="-7904.377" cy="8764.5498" r="104.7223" gradientTransform="matrix(0.982 0 0 -0.982 7975.874 8596.3105)" gradientUnits="userSpaceOnUse">
		<stop  offset="0.113" style="stop-color:#FFF44F"/>
		<stop  offset="0.456" style="stop-color:#FF980E"/>
		<stop  offset="0.622" style="stop-color:#FF5634"/>
		<stop  offset="0.716" style="stop-color:#FF3647"/>
		<stop  offset="0.904" style="stop-color:#E31587"/>
	</radialGradient>
	<path fill="url(#SVGID_16_)" d="M162.8,37.7c2.7,15.7,16.9,27.6,33,28.1c14.9,0.4,24.5-8.2,28.4-16.7c3.3-7.3,3.7-15.6,1.1-23.2v0
		c0,0,0,0,0,0l0,0.1c1.2,8-2.8,15.7-9.2,20.9l0,0c-12.3,10-24.1,6.1-26.5,4.4c-0.2-0.1-0.3-0.2-0.5-0.2c-7.2-3.4-10.2-10-9.5-15.6
		c-3.5,0.1-6.7-2-8.1-5.1c3.8-2.4,8.6-2.5,12.6-0.5c4.1,1.8,8.7,2,12.9,0.5c0-0.3-6-2.7-8.3-5c-1.2-1.2-1.8-1.8-2.4-2.3
		c-0.3-0.2-0.6-0.5-0.9-0.7c-0.2-0.1-0.4-0.3-0.7-0.5c-2.5-1.6-7.5-1.5-7.7-1.5h0c-1.4-1.7-1.3-7.4-1.2-8.6
		c-0.4,0.2-0.8,0.4-1.1,0.6c-1.2,0.9-2.3,1.8-3.4,2.9c-1.2,1.2-2.3,2.5-3.2,3.8v0v0c-2.2,3.1-3.8,6.7-4.6,10.4
		C163.4,29.6,162.2,34.9,162.8,37.7L162.8,37.7z"/>
	
		<radialGradient id="SVGID_17_" cx="-7942.5874" cy="8940.6709" r="76.7018" gradientTransform="matrix(0.1031 0.9771 0.6412 -6.775691e-002 -4708.9351 8361.7578)" gradientUnits="userSpaceOnUse">
		<stop  offset="0" style="stop-color:#FFF44F"/>
		<stop  offset="6.000000e-002" style="stop-color:#FFE847"/>
		<stop  offset="0.168" style="stop-color:#FFC830"/>
		<stop  offset="0.304" style="stop-color:#FF980E"/>
		<stop  offset="0.356" style="stop-color:#FF8B16"/>
		<stop  offset="0.455" style="stop-color:#FF672A"/>
		<stop  offset="0.57" style="stop-color:#FF3647"/>
		<stop  offset="0.737" style="stop-color:#E31587"/>
	</radialGradient>
	<path fill="url(#SVGID_17_)" d="M209,24.1c1.3,1.2,2.3,2.6,3.2,4.2c0.2,0.1,0.4,0.3,0.5,0.4c7.8,7.2,3.7,17.3,3.4,18.1
		c6.3-5.2,10.4-12.9,9.2-20.9c-3.9-9.7-10.5-13.6-15.9-22.1c-0.3-0.4-0.5-0.9-0.8-1.3c-0.2-0.3-0.3-0.5-0.4-0.7
		c-0.2-0.4-0.4-0.9-0.5-1.4c0,0,0-0.1-0.1-0.1c0,0,0,0-0.1,0c0,0,0,0,0,0c0,0,0,0,0,0C206.2,0.9,198.3,13.4,209,24.1L209,24.1z"/>
	
		<radialGradient id="SVGID_18_" cx="-7924.2427" cy="8739.2656" r="65.3694" gradientTransform="matrix(0.982 0 0 -0.982 7975.874 8596.3105)" gradientUnits="userSpaceOnUse">
		<stop  offset="0.137" style="stop-color:#FFF44F"/>
		<stop  offset="0.48" style="stop-color:#FF980E"/>
		<stop  offset="0.592" style="stop-color:#FF5634"/>
		<stop  offset="0.655" style="stop-color:#FF3647"/>
		<stop  offset="0.904" style="stop-color:#E31587"/>
	</radialGradient>
	<path fill="url(#SVGID_18_)" d="M212.7,28.7c-0.1-0.1-0.3-0.3-0.5-0.4c-0.1-0.1-0.1-0.1-0.2-0.2c-2.4-1.7-5.4-2.4-8.3-2
		c12.4,6.2,9,27.5-8.1,26.7c-1.5-0.1-3-0.4-4.5-0.9c-0.3-0.1-0.7-0.3-1-0.4c-0.2-0.1-0.4-0.2-0.6-0.3l0,0c2.4,1.6,14.2,5.6,26.5-4.4
		l0,0C216.4,46.1,220.5,35.9,212.7,28.7L212.7,28.7z"/>
	
		<radialGradient id="SVGID_19_" cx="-7907.0859" cy="8735.6533" r="71.5499" gradientTransform="matrix(0.982 0 0 -0.982 7975.874 8596.3105)" gradientUnits="userSpaceOnUse">
		<stop  offset="9.400000e-002" style="stop-color:#FFF44F"/>
		<stop  offset="0.231" style="stop-color:#FFE141"/>
		<stop  offset="0.509" style="stop-color:#FFAF1E"/>
		<stop  offset="0.626" style="stop-color:#FF980E"/>
	</radialGradient>
	<path fill="url(#SVGID_19_)" d="M181.4,40c0,0,1.6-5.9,11.4-5.9c1.1,0,4.1-2.9,4.1-3.8c-4.2,1.5-8.8,1.3-12.9-0.5
		c-4-2-8.8-1.8-12.6,0.5c1.5,3.2,4.7,5.2,8.1,5.1c-0.6,5.6,2.3,12.2,9.5,15.6c0.2,0.1,0.3,0.2,0.5,0.2C185.3,49.1,181.8,45,181.4,40
		L181.4,40z"/>
	
		<linearGradient id="SVGID_20_" gradientUnits="userSpaceOnUse" x1="226.9074" y1="62.4431" x2="178.368" y2="13.8948" gradientTransform="matrix(0.982 0 0 -0.982 0.5716 72.3037)">
		<stop  offset="0.167" style="stop-color:#FFF44F;stop-opacity:0.8"/>
		<stop  offset="0.266" style="stop-color:#FFF44F;stop-opacity:0.634"/>
		<stop  offset="0.489" style="stop-color:#FFF44F;stop-opacity:0.217"/>
		<stop  offset="0.6" style="stop-color:#FFF44F;stop-opacity:0"/>
	</linearGradient>
	<path fill="url(#SVGID_20_)" d="M228.6,24.1c-1.5-3.6-4.5-7.5-6.9-8.7c1.7,3.3,2.9,6.8,3.5,10.4l0,0.1
		c-3.9-9.7-10.5-13.6-15.9-22.1c-0.3-0.4-0.5-0.9-0.8-1.3c-0.2-0.3-0.3-0.5-0.4-0.7c-0.2-0.4-0.4-0.9-0.5-1.4c0,0,0-0.1-0.1-0.1
		c0,0,0,0-0.1,0c0,0,0,0,0,0c0,0,0,0,0,0l0,0c-8.6,5.1-11.6,14.4-11.8,19.1c0.4,0,0.8-0.1,1.2-0.1c6.2,0,12,3.4,15.1,8.8
		c-2.4-1.7-5.4-2.4-8.3-2c12.4,6.2,9,27.5-8.1,26.7c-1.5-0.1-3-0.4-4.5-0.9c-0.3-0.1-0.7-0.3-1-0.4c-0.2-0.1-0.4-0.2-0.6-0.3l0,0
		c-0.2-0.1-0.3-0.2-0.5-0.2c0.2,0.1,0.3,0.2,0.5,0.2c-4.2-2.2-7.7-6.3-8.1-11.2c0,0,1.6-5.9,11.4-5.9c1.1,0,4.1-2.9,4.1-3.8
		c0-0.3-6-2.7-8.3-5c-1.2-1.2-1.8-1.8-2.4-2.3c-0.3-0.2-0.6-0.5-0.9-0.7c-0.8-2.7-0.8-5.6-0.1-8.4c-3.2,1.5-6,3.7-8.3,6.4h0
		c-1.4-1.7-1.3-7.4-1.2-8.6c-0.4,0.2-0.8,0.4-1.1,0.6c-1.2,0.9-2.3,1.8-3.4,2.9c-1.2,1.2-2.3,2.5-3.2,3.9v0v0
		c-2.2,3.1-3.8,6.7-4.6,10.4l0,0.2c-0.1,0.3-0.4,1.8-0.4,2.2c-0.3,1.6-0.4,3.2-0.5,4.8v0.2c0,19,15.4,34.3,34.4,34.3
		c16.7,0,31-12,33.8-28.5c0.1-0.4,0.1-0.9,0.2-1.3C231.6,35.5,230.8,29.6,228.6,24.1L228.6,24.1z M225.2,25.9L225.2,25.9L225.2,25.9
		z"/>
</g>
</svg>
