<?xml version="1.0" encoding="utf-8"?>
<!-- Generator: Adobe Illustrator 18.1.1, SVG Export Plug-In . SVG Version: 6.00 Build 0)  -->
<svg version="1.1" id="Layer_1" xmlns="http://www.w3.org/2000/svg" xmlns:xlink="http://www.w3.org/1999/xlink" x="0px" y="0px"
	 viewBox="0 0 50 50" enable-background="new 0 0 50 50" xml:space="preserve">
<path fill="#FFFFFF" d="M15.5,48h-4.9c-3.7,0-6.7-3-6.7-6.7V8.9c0-3.7,3-6.7,6.7-6.7h4.9c3.7,0,6.7,3,6.7,6.7v32.4
	C22.2,45,19.2,48,15.5,48z"/>
<path fill="#FFFFFF" d="M39.3,48h-4.9c-3.7,0-6.7-3-6.7-6.7V8.9c0-3.7,3-6.7,6.7-6.7h4.9c3.7,0,6.7,3,6.7,6.7v32.4
	C46,45,43,48,39.3,48z"/>
</svg>
