<?xml version="1.0" encoding="utf-8"?>
<!-- Generator: Adobe Illustrator 18.1.1, SVG Export Plug-In . SVG Version: 6.00 Build 0)  -->
<svg version="1.1" id="Layer_1" xmlns="http://www.w3.org/2000/svg" xmlns:xlink="http://www.w3.org/1999/xlink" x="0px" y="0px"
	 viewBox="0 0 116 100" enable-background="new 0 0 116 100" xml:space="preserve">
<g>
	<path fill="#1465E7" d="M30.4,3.4c0-1.5-1.2-2.7-2.7-2.7H12H3.1c-1.5,0-2.7,1.2-2.7,2.7v8.9V28c0,1.5,1.2,2.7,2.7,2.7h6.2
		c1.5,0,2.7-1.2,2.7-2.7V14.9c0-1.5,1.2-2.7,2.7-2.7h13.1c1.5,0,2.7-1.2,2.7-2.7V3.4z"/>
	<path fill="#1465E7" d="M85.6,3.4c0-1.5,1.2-2.7,2.7-2.7H104h8.9c1.5,0,2.7,1.2,2.7,2.7v8.4v15c0,1.5-1.2,2.7-2.7,2.7h-6.2
		c-1.5,0-2.7-1.2-2.7-2.7V14.4c0-1.5-1.2-2.7-2.7-2.7H88.2c-1.5,0-2.7-1.2-2.7-2.7V3.4z"/>
	<path fill="#1465E7" d="M30.4,96.5c0,1.5-1.2,2.7-2.7,2.7H12H3.1c-1.5,0-2.7-1.2-2.7-2.7v-8.9V71.8c0-1.5,1.2-2.7,2.7-2.7h6.2
		c1.5,0,2.7,1.2,2.7,2.7V85c0,1.5,1.2,2.7,2.7,2.7h13.1c1.5,0,2.7,1.2,2.7,2.7V96.5z"/>
	<path fill="#1465E7" d="M85.6,96.6c0,1.5,1.2,2.7,2.7,2.7H104h8.9c1.5,0,2.7-1.2,2.7-2.7v-8.4v-15c0-1.5-1.2-2.7-2.7-2.7h-6.2
		c-1.5,0-2.7,1.2-2.7,2.7v12.3c0,1.5-1.2,2.7-2.7,2.7H88.2c-1.5,0-2.7,1.2-2.7,2.7V96.6z"/>
	<path fill="#1465E7" d="M79.8,69.2H35.6c-1.2,0-2-1.1-1.7-2.3l7.6-28.2c0.4-1.5,2.5-1.8,3.3-0.4l11.3,20c0.7,1.2,2.5,1.2,3.1,0
		L70,38.4c0.8-1.4,2.8-1.2,3.3,0.3l8.2,28.2C81.8,68,81,69.2,79.8,69.2z"/>
	<path fill="#1465E7" d="M57.4,38.7L57.4,38.7c-4.2,0-7.6-3.4-7.6-7.6v0c0-4.2,3.4-7.6,7.6-7.6h0c4.2,0,7.6,3.4,7.6,7.6v0
		C65,35.3,61.6,38.7,57.4,38.7z"/>
</g>
</svg>
