<?xml version="1.0" encoding="utf-8"?>
<!-- Generator: Adobe Illustrator 18.1.1, SVG Export Plug-In . SVG Version: 6.00 Build 0)  -->
<svg version="1.1" id="Layer_1" xmlns="http://www.w3.org/2000/svg" xmlns:xlink="http://www.w3.org/1999/xlink" x="0px" y="0px"
	 viewBox="0 0 20 20" enable-background="new 0 0 20 20" xml:space="preserve">
<path fill="#FFFFFF" d="M0.9,5.6c-0.3,0-0.6,0.3-0.6,0.6v7.4c0,0.3,0.3,0.6,0.6,0.6h3.5l5.2,5.2c0.4,0.4,1,0.1,1-0.4v-4
	c0-0.2-0.1-0.3-0.2-0.4L1.6,5.8C1.5,5.7,1.3,5.6,1.2,5.6C1.2,5.6,0.9,5.6,0.9,5.6z M19.8,18.3l-2.2-2.2c0.8-1,2.1-3.1,2.1-6.1
	c0-4.6-2.9-7-2.9-7c-0.2-0.2-0.6-0.2-0.9,0l-0.6,0.6c-0.2,0.2-0.2,0.6,0,0.9c0,0,2.3,2,2.3,5.6c0,2.2-0.8,3.8-1.5,4.7l-1.5-1.5
	c0.4-0.7,0.9-1.8,0.9-3.2c0-2.7-1.7-4.2-1.7-4.2c-0.2-0.2-0.6-0.2-0.9,0l-0.6,0.6c-0.2,0.2-0.2,0.6,0,0.9c0,0,1,0.8,1,2.7
	c0,0.7-0.2,1.3-0.4,1.7l-2.5-2.5V0.8c0-0.5-0.6-0.8-1-0.4L5.8,4.3L1.6,0.2C1.4-0.1,1-0.1,0.8,0.2L0.2,0.7C0,1,0,1.3,0.2,1.6l1.7,1.8
	l10.8,10.8l5.6,5.6c0.2,0.2,0.6,0.2,0.8,0l0.6-0.6C20,19,20,18.5,19.8,18.3z"/>
</svg>
