<?xml version="1.0" encoding="utf-8"?>
<!-- Generator: Adobe Illustrator 18.1.1, SVG Export Plug-In . SVG Version: 6.00 Build 0)  -->
<svg version="1.1" id="Layer_1" xmlns="http://www.w3.org/2000/svg" xmlns:xlink="http://www.w3.org/1999/xlink" x="0px" y="0px"
	 viewBox="0 0 20 20" enable-background="new 0 0 20 20" xml:space="preserve">
<path fill="#FFFFFF" d="M14.2,5.5c-0.5-0.6-1.3-0.7-1.9-0.3S11.6,6.5,12,7.1l0,0c0.6,0.8,1,1.8,1,2.9c0,1-0.4,2-1,2.9
	c-0.5,0.6-0.4,1.4,0.2,1.9c0.6,0.5,1.4,0.4,1.9-0.2c0,0,0,0,0,0c1-1.3,1.5-2.9,1.5-4.5C15.7,8.3,15.2,6.8,14.2,5.5z M17.6,3.3
	c-0.5-0.6-1.3-0.7-1.9-0.2C15.1,3.6,15,4.4,15.4,5c0,0,0,0,0,0c1.1,1.4,1.7,3.1,1.8,4.9c0,1.8-0.6,3.5-1.8,4.9
	c-0.5,0.6-0.4,1.4,0.2,1.9c0.6,0.5,1.4,0.4,1.9-0.2c1.5-1.9,2.4-4.2,2.4-6.6C19.9,7.5,19.1,5.2,17.6,3.3z M9.4,0.1
	C9.1-0.1,8.7,0,8.5,0.2L3.9,4.5h-3C0.4,4.5,0,4.9,0,5.4v9.1c0,0.5,0.4,0.9,0.9,0.9h3l4.5,4.2l0,0c0.4,0.4,0.9,0.4,1.3,0
	c0.2-0.2,0.3-0.5,0.3-0.7l0-18C10,0.5,9.8,0.2,9.4,0.1z"/>
</svg>
