<?xml version="1.0" encoding="utf-8"?>
<!-- Generator: Adobe Illustrator 18.1.1, SVG Export Plug-In . SVG Version: 6.00 Build 0)  -->
<svg version="1.1" id="Layer_1" xmlns="http://www.w3.org/2000/svg" xmlns:xlink="http://www.w3.org/1999/xlink" x="0px" y="0px"
	 viewBox="0 0 28 26" enable-background="new 0 0 28 26" xml:space="preserve">
<g>
	<g>
		<g>
			<path fill="#FFFFFF" d="M21.1,7.4l-7.1-7.1l-0.8,0.8c0,0-0.1,0.1-0.1,0.1L6.9,7.4c-0.5,0.5-0.5,1.3,0,1.7
				c0.2,0.2,0.6,0.4,0.9,0.4c0.3,0,0.6-0.1,0.9-0.4L12.8,5v13c0,0.7,0.6,1.2,1.2,1.2c0.7,0,1.2-0.6,1.2-1.2V5l4.2,4.2
				c0.5,0.5,1.3,0.5,1.7,0C21.6,8.6,21.6,7.9,21.1,7.4z"/>
			<path fill="#FFFFFF" d="M24.9,25.7h-22c-1.6,0-2.9-1.3-2.9-2.9v-8c0-0.6,0.5-1.2,1.2-1.2c0.6,0,1.2,0.5,1.2,1.2v8
				c0,0.3,0.2,0.6,0.6,0.6h22c0.4,0,0.7-0.3,0.7-0.7v-7.8c0-0.6,0.5-1.2,1.2-1.2s1.2,0.5,1.2,1.2v7.8C28,24.3,26.6,25.7,24.9,25.7z"
				/>
		</g>
	</g>
</g>
</svg>
