<?xml version="1.0" encoding="utf-8"?>
<!-- Generator: Adobe Illustrator 18.1.1, SVG Export Plug-In . SVG Version: 6.00 Build 0)  -->
<svg version="1.1" id="Layer_1" xmlns="http://www.w3.org/2000/svg" xmlns:xlink="http://www.w3.org/1999/xlink" x="0px" y="0px"
	 viewBox="0 0 590 600" enable-background="new 0 0 590 600" xml:space="preserve">
<g>
	<path fill="#125BB2" d="M354.7,230.9c-7.3-2.1-15.8-5.1-23-8.4c-9.8-4.6-10.6-17.6-2.1-24c2.6-2,5.1-4.2,8-6.5
		C343.4,204.3,349.3,218,354.7,230.9z"/>
	<path fill="#125BB2" d="M340.2,188.4c2.1-4.9,4.8-8.9,7.6-14c1.5-0.6,3-1.4,3.9-1.4c7.8,9.4,15.1,21,23,30.2
		c10.3,11.9,21.3,23.3,31.3,35.5c21.1,25.7,19,58.4,4.6,82.3c-2.6,4.2-6.7,7.5-10.1,11.2c-0.7-0.3-1.4-0.5-2.1-0.8
		c0.5-3,0.3-6.3,1.6-8.8c15.7-28.9,6.7-61.7-14.9-82.3c-10.9-10.4-21.7-21-32-32.1C348.4,203,344.4,194.8,340.2,188.4z"/>
	<path fill="#125BB2" d="M266.8,182.1c4,3.8,9.4,11.1,13.4,15.8c-8.7,6.9-19.6,12.3-28.9,18.2c-20.9,13.3-34.9,31.4-39.6,55.9
		c-1.2,6.4-0.8,13.2-1.2,21.1c-5.5-12.6-4.2-24.3-1.6-36c3.1-14.1,10.8-25.8,20.3-36.2c8.3-9,17.7-16.9,26.4-25.5
		C259.3,191.8,263.3,186.4,266.8,182.1z"/>
	<path fill="#3B95E0" d="M427.5,239.7c2.1,4.7,4.3,9.4,6.8,15c3.9,14.3,7.4,27.9,11,41.8c0.1,1,0.1,1.6,0.1,2.7
		c-1.8,9.6-3.6,18.5-5.7,27.8c-1,1.4-1.6,2.6-2.4,4.2c-5.5,10.5-14.7,16.4-24.5,22c-4.3-2.3-8.1-4.4-12.4-6.8
		c-1.9,9-3.7,17.4-5.8,26.2c-1.5,4.1-2.8,7.7-4.5,11.6c-3.8,5-7.1,9.8-10.8,14.8c-1,0.9-1.7,1.7-2.8,2.6c-3.3,2.3-6.1,4.6-9.5,6.8
		c-14,7.1-28.6,9.1-44.2,8.1c-21.6-3.6-40.6-12.1-58.4-24.2c-13.1-27.3-17.6-55.6-16-85.1c0.1-2.7,0.2-5.4-0.1-8
		c-0.2-1.5-1.2-3-1.8-4.5c-1.8,1-3.9,1.7-5.4,3c-0.8,0.7-0.7,2.5-1,3.8c-4.8,20.9-9.7,41.8-14.9,62.5c-3.7-2.8-6.9-5.4-10.4-8.4
		c-4.1-4.3-8.1-8.2-12-12.7c0.8-6.5,1.9-12.4,2.2-18.3c0.1-2.2-1.3-5.5-3-6.7c-7-4.6-14.5-8.5-21.9-13.1c-1-1.4-1.8-2.5-2.8-4
		c-9.4-12.7-11.8-26.8-10.2-41.6c0.5-4.5,3.1-8.8,4.8-12.6c0.6,13.6-1.2,26.8,4.5,40.5c-0.6-12.1-1.7-22.9-1.4-33.5
		c0.4-12.7,3.7-24.8,11-35.8c0.4-0.9,0.6-1.6,0.9-2.5c0.3-0.7,0.6-1,1.5-1.1c4.7-4,9-8,13.7-12c5.1-3.5,9.8-6.8,14.2-10.5
		c12.8-10.8,21.3-23.9,21.3-41.8c3.4-13.9,8.7-26.4,18-38.1c-3-2.1-5.8-4.1-8.6-6.1c9.2-18.8,25.2-28.7,45-31.6
		c20-2.9,39.4,0.4,56.5,12.6c9.3,6.7,15.5,15.7,21.3,26.3c2.3,11,4.1,21.3,5.9,32.1c0,2,0,3.5,0,5.5c1.3,6.8,2.6,13.1,4,19.8
		c0.4,1.1,0.8,1.7,1.2,2.9c8.6,21.6,25.2,36.9,38.9,54.9c1.9,3.3,3.7,6.1,5.6,9.2C426.2,238.3,426.8,239,427.5,239.7 M342.3,110.4
		c0.3,0,0.6-0.1,1-0.1c-0.2-0.3-0.5-0.6-0.7-1.9c-6.8-16-18.5-25.8-36.1-26.2c-16.6-0.3-28.6,8.1-37.1,24.6c4-1.9,6.5-2.9,8.8-4.2
		c11.8-6.8,24.6-10.7,37.7-6.5C325.2,98.9,333.4,105.1,342.3,110.4 M287.2,120.8c-1.8,3.9-4,8.8-7,14.4c-0.3,0.7-0.8,1.8-1.9,2.9
		c-5.2,6.5-10,13.5-19.5,14.4c-1.3,0.1-2.4,3.5-3.7,6.5c0.2,10.3,3,13.3,10.1,15.4c0.5,2.6,1.5,4.5,1.6,8.1
		c-3.3,3.9-7.4,9.3-11.1,12.9c-8.7,8.6-18.1,16.5-26.4,25.5c-9.5,10.3-17.2,22.1-20.3,36.2c-2.6,11.7-4,23.4,1.6,36
		c0.4-7.9-0.1-14.7,1.2-21.1c4.7-24.5,18.7-42.6,39.6-55.9c9.3-5.9,16.8-15.4,26.5-21.6c2.9,2.9,9.9,4.8,9.4,11.6
		c-0.5,6.9-2.5,12.2-10,14.6c-7.2,2.3-14.1,5.4-21.1,8.2c-5.6,2.3-11.2,4.8-17.9,7.7c45.2,39.7,96.8,54.2,155.1,50.8
		c-1.6-14.7-1.4-28.9-11.4-40.4c-7.4-8.6-18.2-12-28.6-17.1c-5.3-12.5-13-24.8-17.6-37.9c0.6-0.5,3.5-3.9,4.5-3.5
		c4,5.9,8.2,14.6,13,19.7c10.2,11.1,21,21.7,32,32.1c21.6,20.6,30.6,53.4,14.9,82.3c-1.4,2.5-1.1,5.9-1.6,8.8
		c0.7,0.3,1.4,0.5,2.1,0.8c3.4-3.7,7.5-7,10.1-11.2c14.5-23.8,16.5-56.6-4.6-82.3c-10-12.2-21-23.6-31.3-35.5
		c-8-9.2-15.6-18.7-22.8-28.7 M352,174.4c4.5-4.6,5.6-8.3,3.5-16c-6.8-5.9-9.6-15.3-20.9-15.3 M282.6,332
		c-4.6-10.6-9.2-21.3-13.8-31.9c-4.7,54.1,46.4,91.6,82.6,84.8C309.2,366.7,300.4,359.9,282.6,332z"/>
	<path fill="#3B95E0" d="M438.5,458.1c17.2,3.5,34.3,7,51.5,10.5c4.6,0.9,9.1,2.1,13.6,3.2c14,3.5,21.1,9.8,20.7,26.1
		c-6,2.9-11.2,5.5-16.5,7.8c-21.5,9.4-44,16-67.6,14.8c-13.5-0.7-32.1-5.5-45.6-8.7c0.2-2-0.3-3.9,0-5.4c1.1-4.8-2.5-8.2-5.9-9
		c-11.3-2.8-18.4-3.6-29.7-6.7c-6.7-1.9-5.3-2.8-10.9,0.6c-3,1.9-9.7,2-13.1,2.1c-10,0.4-21.8-2-32.4-2
		c-16.8-4.5-33.1-8.5-49.1-13.6c-20.9-6.6-41.4-15.3-64-13.1c-12.3,1.2-23.9,4.7-32.6,14.7c-0.1,0,0.1,0,0.7-0.1
		c7.7-1.3,14.8-3.3,22-3.9c20.2-1.8,39.1,4.4,58,10c21.3,6.3,42.6,10.3,65.3,9.1c0.1,7.4,0.1,17,0.1,24.3c-0.2,5,0.6,7.2,6.5,7.8
		c8.3,1.2,16.4,3.7,24.7,5c15.7,2.5,31.4,4.8,47.2,6.6c12.5,1.4,25.1,2.6,37.7,2.8c17.7,0.3,35.4,0.5,53-1.2
		c12.1-1.1,23.9-5.4,35.9-8.2c-5,6.8-12.8,7.8-20.1,9.1c-31.6,5.7-63.4,5.8-95.1,1.7c-28.6-3.7-57.1-8.8-85.6-13.2
		c-1.9-0.3-4-0.1-5.9,0.5c-34.5,11.6-70,14.6-106.1,11.2c-22.1-2-44.2-4.5-66.1-8.2c-28.4-4.8-36.4-31.2-26.9-54.4
		c1.9-4.6,7.6-9.4,12.5-10.8c20.5-5.7,41.3-10.2,62.1-15c5.4-1.2,10.9-1.9,17.6-2.8c6.1-0.8,11.2-2.4,16.1-2.2
		c7.2,0.3,9.5-3.9,12.6-9.2c5.3-9.1,11.9-17.5,18.3-25.9c18.6,3.9,36.7,8.9,55.1,11c24.3,2.7,48.3-0.2,71.5-9.6
		c4.9,6.8,9.5,13.3,14.3,20.2c1.3,1.6,2.4,2.7,3.6,4.4c1.5,5.7,0.8,12.3,8.5,13.4C409.4,454,423.9,456.1,438.5,458.1 M358.7,451
		c6.8-1,13.6-1.9,20.9-3c-7.9-9.5-28.6-5.9-36.6,6.1C348.2,453,352.9,452.1,358.7,451z"/>
	<path fill="#B9DFF9" d="M180.3,305.2c7.3,4.2,14.7,8.1,21.7,12.7c1.8,1.2,3.1,4.5,3,6.7c-0.3,5.9-1.4,11.8-2.7,18.4
		c-2.2,1.7-4,2.6-5.5,3.8c-11.8,8.9-23.6,17.9-35.4,26.9c-8.1-11.1-16-22.3-24.4-33.2c-14.5-18.8-32.2-34.3-52.1-47.2
		c-20.2-13.2-37.7-28.9-49.6-50.3c-11.7-21.1-12.5-49.7,6.8-65.4c12.8-10.4,27.9-15.6,44.2-16.8c38.5-2.8,72.6,9.6,103.7,31.6
		c1.6,1.1,3.4,2,5.4,3.5c-2.3,3.5-5.7,6.1-7.4,9.6c-5.7,11.7-10.8,23.7-16.5,35.2c-3.7-18-2.4-36.3-6.5-53.8
		c-0.7,0.1-1.4,0.2-2.1,0.3c1.3,16.3,2.6,32.6,4,49.7c-11.2-6.9-20.7-13.5-30.9-18.7c-6.8-3.5-11.4-7.5-12.9-15.3
		c-1.5-7.6-4-15-6.2-22.5c-0.8-2.5-2-4.9-3-7.3c-0.7,0.2-1.4,0.5-2,0.7c3.4,11.9,6.7,23.8,10.4,36.8c-13.8-5.9-26.4-12.3-40.2-15
		c-0.2,0.6-0.4,1.2-0.6,1.8c13,5.1,26,10.2,40.4,15.9c-18,9-34.2,17.2-50.4,25.4c0.4,0.8,0.8,1.5,1.1,2.3c1.9-0.8,3.9-1.5,5.7-2.5
		c12.2-6.1,24.6-11.7,36.4-18.4c7-4,12.9-4.3,19.6,0.2c9.9,6.5,20,12.6,31.3,19.6c-21,13-40.2,24.9-59.3,36.8
		c0.4,0.6,0.7,1.3,1.1,1.9c1.2-0.3,2.5-0.4,3.4-1c17.2-10.7,34.3-21.5,51.6-32c2.7-1.6,6.1-1.9,9.3-2.4c0.1,1.3,0,2.2,0,3.1
		c-1.6,4.4-4.2,8.7-4.7,13.2c-1.6,14.8,0.8,28.9,10,42c-7.9,6.2-15.7,11.7-23.6,17.1c0.4,0.6,0.8,1.2,1.2,1.8
		C163.2,315.2,171.7,310.2,180.3,305.2z"/>
	<path fill="#B9DFF9" d="M427.9,239.5c-1.1-0.5-1.8-1.2-2.1-2.3c2.7-1.9,5.1-3.4,7.4-5c-0.6-0.6-1.2-1.2-1.8-1.9
		c-2.5-3.1-5.1-6.2-7.8-9.6c-1.5,2.7-2.7,4.7-3.9,6.8c-13.6-17.5-30.2-32.8-38.4-54.7c2.2-6.2,5.7-7.3,11.1-5.8
		c7.2,2.1,14.7,3.3,22.1,4.8c5.5,1.1,11,2.2,16.6,3.3c0.2-0.9,0.4-1.8,0.5-2.7c-14.6-3.2-29.2-6.3-45.6-9.9c6-9.4,11-17.4,16.3-25.2
		c0.9-1.3,3.4-2.1,5.2-2.2c8-0.7,15.9-0.8,23.9-1.5c4-0.3,7.9-1.3,11.8-2c-0.1-0.7-0.1-1.4-0.2-2.1c-12,0.7-24,1.4-36,2.2
		c-0.4-0.7-0.9-1.4-1.3-2c11.1-10.5,22.2-21,33.2-31.5c-14.6,4.8-23.2,17.5-34.6,28.5c0-11.2,0-20.5,0-29.7
		c-0.6-0.1-1.2-0.1-1.9-0.2c-0.5,3.6-1.2,7.1-1.4,10.7c-0.3,8.4,1.7,17.6-1,25.2c-3.3,9.3-10.3,17.3-15.7,25.8
		c-3.1-5-5.8-9.6-8.6-14.1c-1.9-10.3-3.7-20.5-5.6-31.3c16.7-18.1,36-31.2,60.8-32.7c19.5-1.1,34.3,13.3,37.1,32.8
		c3.2,22.4-4.2,41.3-17.5,58.8c-5.8,7.6-10.7,15.8-15.8,23.8c-0.9,1.5-1.5,3.8-1.1,5.5c1.7,7.3,3.8,14.4,5.8,21.8
		c6.9-5.5,15.2-11.9,23.1-18.8c0.9-0.8,0.3-4-0.4-5.8c-4.1-10.5-2.6-19.9,4.9-27.5c6.5,8,5.6,16.8,3.4,26.4
		c-0.1,0.6,0.1,0.6,0.2,0.5c9.2-4.3,18.7-8.2,27.5-13.1c1.8-1,1.8-6,1.8-9.1c0-9.4,4.2-15.9,12.9-21c4.5,9.3,0.3,16.9-3.6,26
		c8.4-1.8,15.8-3.3,22.1-4.7c1.8-6.2,2.6-12.4,5.3-17.7c1.9-3.7,6.4-6.1,10.5-9.7c3,11.3-0.6,18.9-6.6,27.5c6.7-1.3,13.7-1.7,20-4
		c11.1-4,21.5-1.1,29.2,10.2c-10.8,3.8-21.5,5.8-31.1-1.1c-5-3.6-9.8-3.6-15-3.3c-4.2,0.3-8.3,1.1-13,1.7c7.1,4.9,14.2,10,11.8,20.4
		c-11-1.3-16.5-6.8-19.1-19.7c-9.7,3-19.3,6-28.8,9c12,3.1,20.9,8.6,24.2,21.7c-14.6,1.1-25.5-3.3-32.6-17.8
		c-11.1,7.3-21.9,14.4-32.6,21.4c13.4,2.7,24.1,7.2,30.5,20.1c-15.7,4.5-27.6-0.4-37.7-13.3C440.3,227.7,434.4,233.5,427.9,239.5z"
		/>
	<path fill="#B9DFF9" d="M445.2,296c-3.5-13.5-7-27-10.6-41.1c10.8-3.3,21.6-7,32.7-8.8c27.8-4.5,50.6,12.2,50.5,41.2
		c-0.1,17-6.3,31.4-17.3,43.6c-14.3,15.8-28.4,32.9-37.8,52.8c-17.2-9.6-33-20.4-49.6-30.4c9.3-5.8,18.5-12.5,24.6-23
		c14.3,0.8,27.9,2.9,41.4,4.2c0.1-0.7,0.1-1.3,0.2-2c-3.8-0.6-7.6-1.2-11.5-1.8c-9.3-1.4-18.7-2.7-28-4c1.8-9,3.6-18,5.8-27.6
		c7-8.6,14.9-6.6,23.1-4.2c4.9,1.4,9.9,2.4,14.9,3.3c3.8,0.7,7.7,1,11.5,1.5c0.1-0.7,0.2-1.4,0.3-2.1c-12.5-2.8-25-5.6-39.2-8.7
		c8.8-7.9,16.2-14.5,23.6-21.1c-0.5-0.5-1-1.1-1.5-1.6c-7.3,5.5-14.6,11-22.6,17.2c0.9-9.1,1.7-17.4,2.5-25.6
		c-2.2,1-3.3,2.3-3.5,3.7c-0.7,5-0.9,10.1-1.6,15.2C452.3,283.8,452.6,291.5,445.2,296z"/>
	<path fill="#125BB2" d="M508.8,531.5c-12.4,3-24.2,7.3-36.3,8.4c-17.5,1.6-35.3,1.4-53,1.2c-12.6-0.2-25.2-1.4-37.7-2.8
		c-15.8-1.8-31.5-4.2-47.2-6.6c-8.3-1.3-16.4-3.8-24.7-5c-6.6-1.2-7.3-3.9-6.5-8.9c15.4-1.8,31.3-6.6,46.1-7.6
		c12.8-0.9,21.2-6.2,33.3-0.7c5.5,2.5,6.1,7.8,7.8-1.6c0.1-0.5,9.1,5.5,9.5,5.1c13.4,2.7,26.7,7,40.2,7.7c23.6,1.2,46-5.4,67.6-14.8
		c5.3-2.3,10.5-4.8,16.2-7.4C524.4,511.5,517.8,521.9,508.8,531.5z"/>
	<path fill="#FFA784" d="M412.7,353.2c17,10.1,33.6,20,50.7,30.1c7,5.1,13.4,9.1,22.6,8.1c5.1-0.6,10.9,2.7,16.1,4.9
		c5.1,2.1-15.3,5.1-10.5,7.7c2.1,1.1,4.1,2.3,6.2,3.4c0,0.7,0.1-7,0.1-6.4c-3.7,1.2-7.5,2.4-11.5,3.7c0.7,1.9,27.1,4.1,27.3,6.4
		c0.2,1.5-0.8,3.4-1.7,4.8c-4.1,5.6-10.9,5.3-16.6,6.5c-5.5,1.1-2.7,3.1-7.5,0.8c-5-2.4-14.6-1.3-17.1-6.4
		c-2.4-4.8-8.5-7.7-14.5-9.3c-2.7-0.7-5.5-1.5-8.1-2.4c-11.2-3.9-21.9-7.6-32.6-11.7c-3.4-3.8-6.5-7.2-9.8-10.5
		c-3.7-3.7-7.4-7.2-11.1-10.8c1.8-8.4,3.6-16.8,5.6-25.8C404.6,348.8,408.5,351,412.7,353.2 M478.4,404.9c1.6-1.2,3.1-2.4,4.7-3.6
		c-0.4-0.8-0.7,6.8-1.1,6c-4.6,1.2,15.9-6,9.5-4.3c-5.3-4.5-5.9,6.2-12.5,6c3.8,1.9,5.9,3,8.3,4.2c0.7-2.4,1.3-4.3,2.2-7.3
		c2.9,2.1,5.1,3.7,7.7,5.6c0.3-3,0.6-5.6,0.9-8.6C499.9,403.6,476.2,404.1,478.4,404.9z"/>
	<path fill="#FFA784" d="M161.2,374c12-9.4,23.8-18.3,35.6-27.3c1.6-1.2,3.4-2.1,5.5-3.2c4.4,3.8,9.5,8.1,13.5,12.8
		c-4.2,7.3-9.4,13.5-13.7,19.9c-3.6,5.4-5.8,10.1-9.9,15.8c-5.1,2.7-11.5,5.7-16.2,8c-5.2,2.3-10.5,4.4-15.7,6.7
		c-5,2.2-9.1,6.1-11.6,11c-0.3,0.6-0.6,1.1-0.9,1.5c-3.3,5.2-6.6,5.7-10.6,10.2c-1.8,2-4.7,0.1-8,0.9c-1.3,0.3-2.6,0.6-3.9,0.8
		c-2.4,0.3-4.8,0.6-7.2,0.6c-1.2,0-2.9-1.6-3.5-1.2c-6.1,4.3-0.1-3.9-4.9-3.7c0-3.6,6.3-8.8,6.3-12.5c-3.3-0.7-13.3,3.5-17.5,2.6
		c0.6-1.6,0.6-2.8,1.1-3.1c8.3-5.6,11.4-7.8,19.8-13.1c2.2-1.4,1.9-4.8,4.3-4.4c9.6,1.6,15.9-5.3,22.4-10.7
		C151,381.8,156,378.2,161.2,374 M110.6,418.4c7.5-4.5,5.8,2.1,6.1,6.4c2.9-2.2,5.1-3.9,7.8-6c1.2,2.6,2.2,4.7,3.4,7.2
		c2.2-1.9,4.1-3.6,6.9-6.1c-5.9-1.4-10.6-2.5-16.4-3.8c-1.4-4.1-4.2-4.7-13-0.4C107.1,416.8,108.4,417.8,110.6,418.4z"/>
	<path fill="#B9DFF9" d="M176.1,400.7c4.7-2.8,9.5-5.2,15-8c14.3-6.7,27.3-13.8,38.1-24.6c4.5,3.3,8.5,6.5,12.5,10.1
		c-8.5,4.5-17,8.6-25.5,12.7c-1.3,0.6-2.5,1.6-3.7,2.3c0.3,0.6,0.6,1.2,1,1.8c10.9-4.5,21.7-9.1,32.9-13.6c0.9,0.5,1.4,0.8,1.6,1.6
		c-1.4,5.6-2.5,10.7-4,16.3c-1.1,4.6-1.9,8.8-2.6,13c-6,8.7-12.6,17-17.9,26.2c-3.1,5.3-5.4,9.5-12.6,9.2c-5-0.2-10,1.4-15.6,2.1
		C188.6,433.6,182.3,417.4,176.1,400.7z"/>
	<path fill="#B9DFF9" d="M415.8,393.9c12.2,4.3,24.5,8.5,37.2,13c-4.5,16.9-9.4,33.5-14.4,50.7c-14.7-1.5-29.2-3.6-43.8-5.6
		c-7.8-1.1-7.1-7.7-8.4-13.9c0.6-3,1.4-4.9,1.5-6.9c0.4-5.5,3.8-7.3,8.6-8c9.6-1.4,19.2-2.7,28.8-4.2c4.8-0.8,9.5-2,14.2-3
		c-0.1-0.7-0.3-1.4-0.4-2.1c-15.9,2.3-31.8,4.7-48.8,7.2c3.5-11.8,6.6-22.2,10.1-32.4C405.8,390.4,410.8,392.2,415.8,393.9z"/>
	<path fill="#E3F3FF" d="M207,183.4c-1.5-1.4-3-2.8-4.8-4.6c-10.8,1.8-21.4,1-29.4-9.9c9.5-4.7,18.1-3.7,27.6-0.1
		c-3.1-7.2-6.1-14.3-9.5-22.3c-13.7,8.2-25.1,4.5-36.4-4.9c9.8-7.6,19.9-7.6,31.5-4.4c-5.5-7.5-11.1-15.1-17-23.2
		c-8.6,9.6-17.6,9.3-28.2,5.2c5-9,12.6-10.1,22.9-9.5c-7.4-7-12.4-13.9-21.9-14.9c-12.3-1.3-21.2-7.7-27.4-18.4
		c11.6-4.1,22.3-0.6,28.8,8.3c4,5.5,9,10.4,14.7,16.8c0.9-6.8,0.8-11.5,2.2-15.7c1.3-3.9,4.2-7.3,7-12c6.8,12.1,5.1,21.5-3.1,30.5
		c5.5,6.5,11,12.8,17.5,20.4c-1-11.2,2.7-19.2,10.4-25.5c5.4,8.3,4.5,19.6-2.9,27.6c-3,3.3-3,5.4-0.8,9.1c4.7,8,8.7,16.5,13.1,25
		c3-9.7,7.3-18.2,18.2-21c2.5,11.6-3.1,21.5-15.8,27.4c1.1,4.9,2.2,10,3.3,15.6C206.9,183.4,207,183.4,207,183.4z"/>
	<path fill="#B9DFF9" d="M323.4,583.9c24,1.7,47.8,0.2,71.7,7.1c-14.3,12-158,12.1-173.5-0.4C256.2,583.5,289.5,583.9,323.4,583.9z"
		/>
	<path fill="#C0D4E9" d="M544,54.6c-8.6,4.3-16.2,4.3-23-2.5c-6-5.9-7.8-13.5-5-20.6c2.7-6.9,11.2-12.9,18.1-12.7
		c8,0.2,15.7,6,18,13.6C554.7,41.2,552,49,544,54.6z"/>
	<path fill="#125BB2" d="M171.9,246.6c-0.1-1.5-0.1-2.4,0-4.2c0.1-1.1,0.1-1.4,0.1-1.6c5.3-11.9,10.4-23.8,16.1-35.5
		c1.7-3.5,5.1-6.1,7.9-9.5c3.7-4.1,7.3-7.8,11-12c0.1-0.4,0-0.5,0-0.4c11.2-7.9,16.8-19.6,21.5-32c5.8-15.1,12.9-31.8,19.3-47.1
		c3.1,1.7,4.9,5.3,7.9,7.4c-9.3,11.7-14.5,24.2-18.3,38.3c-6.3,10.8-11.5,21.4-18.3,30.8c-5.1,7-12.4,12.5-19.1,18.8
		c-4.2,5-8.1,9.8-11.9,14.6c-0.4,0.2-0.7,0.4-1.3,1.3c-0.5,1.2-0.7,1.9-0.9,2.5c-7.1,10.8-10.4,22.9-10.8,35.6
		c-0.3,10.7,0.8,21.4,1.4,33.5C170.7,273.4,172.5,260.2,171.9,246.6z"/>
	<path fill="#C0D4E9" d="M23.1,351.8c0.6,9.3-2.2,14.2-8,15.1c-6.8,1-12.3-1.9-14-7.5c-1.9-6,0.8-12.3,6.3-14.5
		C13.6,342.3,18.9,344.5,23.1,351.8z"/>
	<path fill="#C0D4E9" d="M226.3,54.8c-4.7,6.7-9.2,8.2-14.9,5.6c-5.6-2.7-8.5-8.9-6.7-14.3c1.8-5.6,7.2-8.4,14-7.4
		C225.1,39.7,227.8,44.9,226.3,54.8z"/>
	<path fill="#C6D9EB" d="M549.8,313.1c-4-10.6,0-20.7,8.9-23.5c9.6-3,18.8,2.3,21.2,12.9c1.5,6.5-1.2,11.8-6.5,15.6
		c-6.2,4.5-13.2,4.3-19.3-0.2C552.5,316.7,551.4,315,549.8,313.1 M575.8,302.6c-0.7-3.4-2.4-6.5-5.2-8.6c-2.7-1.9-5.8-2.7-9.6-1.6
		c-7.3,2-11.7,10.1-9.2,16.7c2.4,6.5,9.9,10,16.4,7.7C574.3,314.7,577.1,309.5,575.8,302.6z"/>
	<path fill="#C6D9EB" d="M79.7,51.5c-2.9,8.9-8.1,12.8-16.2,12.7c-7-0.1-12.6-4.2-14.9-11.2c-2.3-7.1-0.3-13,6.2-18.1
		c4.9-3.8,10.3-3.8,15.7-1.4c5.5,2.4,8.9,6.5,9.2,12.7C79.7,47.8,79.7,49.3,79.7,51.5 M76.9,48.6c-0.2-1.1-0.3-2.2-0.6-3.2
		C73.9,38,68.8,34.9,61,36c-5.9,0.8-9.4,5.1-9.5,11.7c-0.1,7.4,3.6,11.9,11.2,13.3C68.7,62.1,73.8,58,76.9,48.6z"/>
	<path fill="#C6D9EB" d="M389.3,43.3c4.2-4.7,9.4-6.5,14.1-3.6c3.2,1.9,6.7,6.7,6.5,9.8c-0.3,3.8-3.8,8.7-7.3,10.5
		c-2.8,1.5-8.5,0.3-11.4-1.8C386.4,54.8,386.8,49.1,389.3,43.3 M399.2,41.6c-8.1,3-11.2,7.8-7.3,12.1c2,2.2,6.1,3.5,9.1,3.3
		c1.9-0.1,4.7-3.4,5.3-5.7C407.4,46.6,404.8,43.3,399.2,41.6z"/>
	<path fill="#E3F3FF" d="M82.8,113.2c3.6-1.4,7-2.8,10.4-2.9c1.2,0,3.6,3.2,3.5,4.8c-0.2,2.8-1.2,6.2-3.2,8
		c-1.4,1.3-6.1,1.4-7.1,0.2C84.5,120.7,83.8,116.9,82.8,113.2 M87.9,121c2.1-1,4.3-1.9,6.1-3.3c0.3-0.2-0.9-3.6-2.1-4.1
		c-1.4-0.6-4.7-0.2-5,0.6C86.3,116,87,118.3,87.9,121z"/>
	<path fill="#CEECF0" d="M75.6,322.3c-1.4,6.1-5.8,7-9.7,5c-2.4-1.2-5.2-6.1-4.4-8.1c1-2.6,5.1-5.3,8.2-5.6
		C75,313,75.9,317.4,75.6,322.3 M68.3,316.1c-1.3,2.1-2.9,4.1-3.8,6.3c-0.1,0.3,2.6,2.6,4,2.5c1.4-0.1,3.9-2.1,3.8-2.9
		C71.9,320,70.4,318.2,68.3,316.1z"/>
	<path fill="#C6D9EB" d="M586,400.3c-4.2,2.2-7.3,0.9-8.4-2.7c-0.6-2,0.3-5.9,1.7-6.6c2-1,6.8-0.6,7.3,0.5
		C587.7,393.9,586.7,397.2,586,400.3z"/>
	<path fill="#C6D9EB" d="M495.3,104.7c4.2-2.8,7.1-0.9,8.4,2.3c0.8,1.9,0,6.2-1.4,7c-2,1.1-5.9,0.9-7.8-0.5
		C491.7,111.2,491.5,107.7,495.3,104.7z"/>
	<path fill="#CEECF0" d="M254.4,23.5c-7.2,0.1-10.6-3-9.9-8.6c0.7-5.9,5-6.3,9.3-5.5c1.9,0.4,5.1,3,4.9,4.2
		C258.2,17,256.2,20.1,254.4,23.5 M247.8,18.4c2,0.6,4.2,1.8,6.1,1.6c0.9-0.1,2.1-3.3,1.8-4.8c-0.2-1.3-3.4-3.2-3.7-3
		C250.2,13.7,248.9,15.7,247.8,18.4z"/>
	<path fill="#C6D9EB" d="M44.5,452.4c3.7-3.6,7.4-3.7,9.7,0.1c1,1.6,0,5.8-1.5,7.1c-1.5,1.3-5.5,1.3-7.2,0.1
		C44.2,458.8,44.6,455.2,44.5,452.4z"/>
	<path fill="#C0D6E9" d="M573.6,94.9c2.8-0.4,6-1.4,7.6-0.2c1.3,0.9,1.3,4.8,0.4,6.8c-0.6,1.3-3.6,1.5-5.6,2.2
		C575.1,101,574.2,98.1,573.6,94.9z"/>
	<path fill="#E3F3FF" d="M18.6,118.5c-1.1-2.5-2.1-4.7-2.3-7.1c0-0.4,3-1.8,4.4-1.5c1.4,0.3,2.4,2,3.6,3.1
		C22.6,115,20.8,116.8,18.6,118.5z"/>
	<path fill="#CEECF0" d="M356.9,1.3c-0.4,2.4-0.6,4.9-1.9,6.2c-0.7,0.7-4.5-0.2-5-1.2c-0.7-1.5-0.4-4.9,0.7-5.6
		C352-0.3,354.6,0.7,356.9,1.3z"/>
	<path fill="#CEECF0" d="M537.7,370.9c-2.1-1.5-3.6-2.9-5.1-4.4c1.3-1.2,2.6-3.2,4.1-3.4c1.5-0.2,3.3,1.5,4.9,2.3
		C540.4,367.2,539.3,369.1,537.7,370.9z"/>
	<path fill="#CEECF0" d="M86,368.9c1,2.6,1.5,5.1,2,7.5c-1.8,0.1-4.6,1.1-5.2,0.3C79.4,372.9,80.8,370.1,86,368.9z"/>
	<path fill="#FEA684" d="M334.2,143.2 M329.7,198.5c-8.6,6.4-7.8,19.4,2.1,24c7.2,3.3,15,5.2,22.5,7.7c10,4.3,20.2,8.2,27.7,16.8
		c9.9,11.5,9.7,25.7,11.4,40.4c-58.3,3.4-109.9-11.1-155.1-50.8c6.7-2.9,12.2-5.4,17.9-7.7c7-2.9,13.9-5.9,21.1-8.2
		c7.4-2.4,9.5-7.7,10-14.6c0.2-2.8-0.7-4.2-2.1-5.3c-5.1-3.7-9.9-7.8-14.1-12.5l-0.2-0.2c-3.2-3.5-5.2-7.9-5.9-12.5
		c-0.1-0.6-0.2-1.1-0.3-1.7c-0.1-13-0.9-14-9.2-15.5c0.7-1.9,2.1-5.7,3.4-5.8c9.6-0.9,14.5-8.8,20.3-15.4c2.6-5.1,16.9-4,16.7-3
		c-0.8,2.7-12,10.1-14.3,10.4c5.2-3.5,6.8-5.9,12.2-9.4c-0.3-0.7-0.2-0.6-0.5-1.3c-3.9,0.7-7.8,1.4-11.9,1.8
		c-0.2-0.2-2.1,1.4-2.1,1.4c3.3-5.6,6.3-12.4,8.1-16.4c0,0,36.2,22.4,50.6,22.2c10.9-0.9,13,8.1,18.7,15.2c-2.9,1.9-6.5,2-7.2,4
		c-1.4,4-0.5,7.3-0.9,12.2c-0.6,1.3-1.9,3.9-2.6,5.1c-3.1,6.5-7.7,12.2-13.3,16.7L329.7,198.5"/>
	<path fill="#125BB2" d="M241.7,377.7c-4-3.2-8.1-6.3-12.8-10c-1.5-1.5-2.4-2.5-3.3-3.6c4.8-20.9,9.7-41.8,14.5-62.7
		c0.3-1.3,0.2-3.1,1-3.8c1.5-1.3,3.6-2,5.4-3c0.6,1.5,1.7,2.9,1.8,4.5c0.3,2.6,0.2,5.3,0.1,8c-1.6,29.5,2.9,57.9,15.6,84.9
		c-5.5-2.9-10.6-6.2-15.7-9.5c-0.5-0.4-1.1-0.8-2.2-1.6C244.3,379.7,243,378.7,241.7,377.7z"/>
	<path fill="#125BB2" d="M282.8,332.4c17.6,27.5,26.4,34.2,68.6,52.4c-36.2,6.9-87.3-30.7-82.6-84.8
		C273.4,310.7,278,321.4,282.8,332.4z"/>
	<path fill="#F9A787" d="M241.8,412.6c0.3-4.5,1.1-8.7,2.6-13.1c15.9,5.4,30.7,12.1,46.2,16c10.3,2.6,21.7,0.9,32.6,1.1
		c15.1,0.9,30.1-2.8,44.2-9.4c0.7,1.9,0.4,5.9,0.5,7.4c-22.8,9.7-46.9,11.7-71.1,9C278.6,421.5,260.5,416.6,241.8,412.6z"/>
	<path fill="#FD937E" d="M322.8,416.6c-10.4-0.1-21.8,1.5-32.1-1c-15.5-3.8-30.4-10.6-45.9-16.4c0.7-5.4,1.8-10.5,3.2-16.1
		c5.4,2.9,10.5,6.1,16,9.6C282.2,404.5,301.2,413,322.8,416.6z"/>
	<path fill="#E3F3FF" d="M375.8,145c2.8,4,5.6,8.5,8.7,13.6c5.4-8.5,12.5-16.5,15.7-25.8c2.7-7.6,0.7-16.7,1-25.2
		c0.1-3.6,0.9-7.1,1.4-10.7c0.6,0.1,1.2,0.1,1.9,0.2c0,9.3,0,18.5,0,29.7c11.4-11,20-23.7,34.6-28.5c-11.1,10.5-22.2,21-33.2,31.5
		c0.4,0.7,0.9,1.4,1.3,2c12-0.7,24-1.4,36-2.2c0.1,0.7,0.1,1.4,0.2,2.1c-3.9,0.7-7.8,1.6-11.8,2c-8,0.7-15.9,0.8-23.9,1.5
		c-1.8,0.2-4.3,0.9-5.2,2.2c-5.3,7.8-10.3,15.8-16.3,25.2c16.4,3.5,31,6.7,45.6,9.9c-0.2,0.9-0.4,1.8-0.5,2.7
		c-5.5-1.1-11.1-2.1-16.6-3.3c-7.4-1.5-14.8-2.7-22.1-4.8c-5.5-1.6-8.9-0.5-11.2,5.2c-0.8-0.4-1.2-1.1-1.4-2.6
		c4.1-8.4-0.7-14-4.2-19.9C375.8,148.5,375.8,147,375.8,145z"/>
	<path fill="#125BB2" d="M342.1,109.8c-8.7-4.7-17-10.9-26.2-13.8c-13.1-4.2-25.9-0.2-37.7,6.5c-2.3,1.3-4.9,2.4-8.8,4.2
		c8.5-16.5,20.5-24.9,37.1-24.6c17.6,0.4,29.3,10.2,36,26.8C342.3,109.6,342.1,109.8,342.1,109.8z"/>
	<path fill="#FD937E" d="M225.2,364c1.3,1.2,2.8,2.7,3.9,4.1c-10.2,11.3-23.8,17.9-37.8,24.2c3.3-5.3,7.1-10.6,10.8-16
		c4.3-6.4,9.3-13,13.7-19.9C219.3,358.6,221.6,361.2,225.2,364z"/>
	<path fill="#E3F3FF" d="M399.8,388.5c-3.1,10.3-6.1,20.7-9.6,32.5c17.1-2.5,33-4.8,48.8-7.2c0.1,0.7,0.3,1.4,0.4,2.1
		c-4.7,1-9.4,2.3-14.2,3c-9.6,1.5-19.2,2.9-28.8,4.2c-4.8,0.7-8.2,2.5-8.6,8c-0.1,2-0.9,3.9-1.5,6.3c-1.3-0.6-2.4-1.8-3.2-3.4
		c1.5-5.3,4.6-10.5,3.5-14.6c-1.7-6.4-6.3-12-9.7-17.9c0.7-0.8,1.3-1.5,2.6-2c3.1,5.1,5.6,10,8.8,16.1c3.3-10.4,6.1-19.4,9.2-28.4
		C398.5,387.7,399.2,388.1,399.8,388.5z"/>
	<path fill="#E3F3FF" d="M445.3,296.4c7.3-4.9,7.1-12.6,8.1-19.7c0.7-5,0.9-10.1,1.6-15.2c0.2-1.4,1.3-2.6,3.5-3.7
		c-0.8,8.2-1.6,16.5-2.5,25.6c8.1-6.1,15.3-11.6,22.6-17.2c0.5,0.5,1,1.1,1.5,1.6c-7.4,6.6-14.8,13.2-23.6,21.1
		c14.3,3.2,26.8,5.9,39.2,8.7c-0.1,0.7-0.2,1.4-0.3,2.1c-3.8-0.5-7.7-0.8-11.5-1.5c-5-0.9-10-1.9-14.9-3.3
		c-8.2-2.4-16.1-4.4-23.1,3.6C445.3,298,445.3,297.4,445.3,296.4z"/>
	<path fill="#B9DFF9" d="M376.5,401.7c3.8,5.8,8.4,11.5,10.1,17.8c1.1,4.1-1.9,10.2-3.6,15.1c-5.1-6.4-9.7-13.8-14.6-20.6
		c-0.5-1.6-0.6-3.9-0.9-5.8C370.3,405.4,373.2,404,376.5,401.7z"/>
	<path fill="#F6FBFC" d="M200.2,199.4c6.3-6.2,13.6-11.6,18.7-18.6c6.9-9.4,12.1-19.9,18.3-30.2c0.3,17.2-8.2,30.3-21,41
		c-4.4,3.7-9.2,7-14.4,10.1C201,200.8,200.6,200.1,200.2,199.4z"/>
	<path fill="#B9DFF9" d="M397.1,387.2c-2.8,9-5.6,18-8.9,28.5c-3.2-6.1-5.7-11-8.4-16.3c3.1-5.2,6.5-10,10.7-15
		C393.3,385.2,395.2,386.2,397.1,387.2z"/>
	<path fill="#FD937E" d="M397.5,387.3c-2.3-1-5.1-1.9-7.4-3c0.8-3.8,3.2-9.3,4.7-13.4c3.9,3.2,7.5,8.5,11.1,12.2
		c3.3,3.3,6.4,6.7,9.8,10.5c-4.9-1.3-9.9-3.1-15.4-4.9C399.2,388.1,398.5,387.7,397.5,387.3z"/>
	<path fill="#E3F3FF" d="M439.6,326.9c9.7,1.1,19,2.4,28.3,3.8c3.8,0.6,7.7,1.2,11.5,1.8c-0.1,0.7-0.1,1.3-0.2,2
		c-13.5-1.3-27.1-2.5-41.2-3.7C438.1,329.6,438.7,328.4,439.6,326.9z"/>
	<path fill="#FF7984" d="M255.8,158.2c7.6,1,10.1,4.1,9.1,15.9c0,0.6-0.6,1-1.2,0.9c-6-1-8.7-6.4-8.7-16.1
		C255,158.5,255.4,158.1,255.8,158.2z"/>
	<path fill="#FF7984" d="M356,158.2c-7.6,1.6-9.9,4.8-8.2,16.5c0.1,0.6,0.7,1,1.3,0.9c6-1.4,8.4-7,7.7-16.7
		C356.9,158.5,356.4,158.1,356,158.2z"/>
	<path fill="#FFFFFF" d="M419.8,228.1c1.1-2.5,2.3-4.6,3.8-7.3c2.8,3.4,5.3,6.5,7.8,9.6c0.6,0.6,1.2,1.2,1.8,1.9
		c-2.4,1.5-4.7,3-7.6,4.6C423.5,234.1,421.7,231.3,419.8,228.1z"/>
	<path fill="#E3F3FF" d="M180.1,304.8c-8.3,5.4-16.9,10.4-25.4,15.4c-0.4-0.6-0.8-1.2-1.2-1.8c7.9-5.4,15.7-10.8,23.8-16.7
		C178.3,302.3,179.1,303.4,180.1,304.8z"/>
	<path fill="#CCEAEE" d="M375.8,150.5c3.5,5.3,8.3,10.9,4.2,18.9C378.4,163.6,377.1,157.4,375.8,150.5z"/>
	<path fill="#CCEAEE" d="M199.8,199.6c0.8,0.5,1.1,1.2,1.6,2.2c-4.1,4.3-8.4,8.3-13.1,12.3C191.7,209.4,195.6,204.6,199.8,199.6z"/>
	<path fill="#CCEAEE" d="M186,217.8c-0.1-0.4,0.1-1.1,0.5-2C186.6,216.3,186.4,216.9,186,217.8z"/>
	<path fill="#054C7F" d="M342.4,109.5c0.4,0.2,0.6,0.5,0.8,0.8c-0.3,0-0.6,0.1-1.1-0.2C342.1,109.8,342.3,109.6,342.4,109.5z"/>
	<path fill="#125BB2" d="M302.8,491.5c0.6,1.4,0.5,2.9,0.4,4.8c-22.8,2.4-44-4.5-65.3-10.8c-19-5.6-37.9-11.8-58-10
		c-7.2,0.6-14.3,2.6-22,3.9c-0.5,0-0.5,0-0.5,0c8.5-9.9,20.1-13.5,32.4-14.6c22.6-2.1,43.1,6.5,64,13.1
		C269.7,483,286.1,487,302.8,491.5z"/>
	<path fill="#125BB2" d="M281.9,464.7c-6.9-4.4-13.5-9.1-20.7-13c-9.4-5-19.6-6.2-30.2-4.9c8.7-14.3,38.3-4.5,50.8,17.4
		C281.9,464.7,281.9,464.7,281.9,464.7z"/>
	<path fill="#125BB2" d="M358.1,451.1c-5.3,1-9.9,2-15.1,3c7.9-11.9,28.6-15.5,36.6-6.1C372.3,449,365.5,450,358.1,451.1z"/>
	<path fill="#66BBC4" d="M157.4,479.4c-0.1,0-0.3,0.1-0.2,0.1C157.4,479.4,157.4,479.4,157.4,479.4z"/>
	<path fill="#E3F3FF" d="M171.6,240.5c0.4,0.6,0.4,0.9,0.2,1.5c-3.2,1.3-6.7,1.6-9.4,3.2c-17.3,10.5-34.4,21.4-51.6,32
		c-1,0.6-2.3,0.7-3.4,1c-0.4-0.6-0.7-1.3-1.1-1.9c19.1-11.9,38.3-23.7,59.3-36.8c-11.3-7-21.4-13-31.3-19.6
		c-6.7-4.4-12.6-4.1-19.6-0.2c-11.8,6.7-24.2,12.4-36.4,18.4c-1.9,0.9-3.8,1.7-5.7,2.5c-0.4-0.8-0.8-1.5-1.1-2.3
		c16.2-8.2,32.5-16.4,50.4-25.4c-14.4-5.7-27.4-10.8-40.4-15.9c0.2-0.6,0.4-1.2,0.6-1.8c13.8,2.7,26.4,9.1,40.2,15
		c-3.7-13-7-24.9-10.4-36.8c0.7-0.2,1.4-0.5,2-0.7c1,2.4,2.3,4.8,3,7.3c2.2,7.4,4.7,14.9,6.2,22.5c1.5,7.8,6,11.8,12.9,15.3
		c10.2,5.2,19.8,11.9,30.9,18.7c-1.4-17.1-2.7-33.4-4-49.7c0.7-0.1,1.4-0.2,2.1-0.3C169.2,204.2,167.9,222.5,171.6,240.5z"/>
	<path fill="#FFFFFF" d="M470.8,198.1c-0.1,0.1-0.3,0.1-0.2,0C470.8,198.1,470.8,198.1,470.8,198.1z"/>
	<path fill="#FD937E" d="M478,404.7c-1.8-0.7,21.9-1.2,20.1-1.8c-0.3,3-0.6,5.6-0.9,8.6c-2.6-1.9-4.8-3.5-7.7-5.6
		c-0.9,2.9-1.5,4.9-2.2,7.3c-2.4-1.2-4.5-2.3-8.3-4.2c6.6,0.1,7.2-10.6,12.5-6c6.4-1.6-14.2,5.5-9.5,4.3c0.4,0.8,0.7-6.8,1.1-6
		C481.6,402.5,480,403.7,478,404.7z"/>
	<path fill="#FD937E" d="M110.2,418.5c-1.8-0.8-3.1-1.7-4.7-2.8c8.8-4.3,11.6-3.7,13,0.4c5.8,1.3,10.4,2.4,16.4,3.8
		c-2.9,2.5-4.7,4.1-6.9,6.1c-1.2-2.6-2.1-4.6-3.4-7.2c-2.7,2.1-4.9,3.8-7.8,6C116.5,420.4,118.2,413.9,110.2,418.5z"/>
	<path fill="#E3F3FF" d="M241.7,378.2c1.3,0.5,2.6,1.5,4.1,2.9c-10.6,4.9-21.5,9.4-32.3,14c-0.3-0.6-0.6-1.2-1-1.8
		c1.2-0.8,2.4-1.7,3.7-2.3C224.6,386.8,233.1,382.7,241.7,378.2z"/>
	<path fill="#FFFFFF" d="M574.5,298.3c3.7,8.7,1.1,15.9-6.3,18.5c-6.5,2.3-14-1.2-16.4-7.7c-2.4-6.6,1.9-14.7,9.2-16.7
		C566.6,290.9,571,293.3,574.5,298.3z"/>
	<path fill="#FFFFFF" d="M76.8,49.1c-3,8.9-8.1,13-14.2,11.9c-7.6-1.4-11.3-5.9-11.2-13.3c0.1-6.6,3.6-10.8,9.5-11.7
		c7.8-1.1,12.9,2,15.3,9.3C76.6,46.4,76.7,47.5,76.8,49.1z"/>
	<path fill="#FFFFFF" d="M399.7,41.6c5.1,1.7,7.7,5,6.6,9.7c-0.6,2.3-3.3,5.6-5.3,5.7c-3,0.2-7.1-1.1-9.1-3.3
		C387.9,49.4,391.1,44.5,399.7,41.6z"/>
	<path fill="#E3F3FF" d="M87.5,120.7c-0.5-2.4-1.2-4.7-0.5-6.5c0.3-0.8,3.6-1.2,5-0.6c1.2,0.5,2.4,3.9,2.1,4.1
		C92.2,119.1,90,120,87.5,120.7z"/>
	<path fill="#FFFFFF" d="M68.8,316.2c1.6,2,3.1,3.8,3.5,5.9c0.1,0.8-2.4,2.8-3.8,2.9c-1.4,0.1-4.1-2.2-4-2.5
		C65.4,320.2,66.9,318.2,68.8,316.2z"/>
	<path fill="#FFFFFF" d="M247.6,18c1.3-2.3,2.6-4.3,4.4-5.8c0.3-0.3,3.5,1.7,3.7,3c0.3,1.5-0.9,4.7-1.8,4.8
		C252,20.3,249.9,19.1,247.6,18z"/>
	<path fill="#FF7984" d="M310,164.6c-0.2-0.2-0.3-0.4-0.5-0.7c0.1,0.1,0.3,0.1,0.5,0.4C310.1,164.5,310.1,164.6,310,164.6z"/>
	<path fill="#FF927C" d="M290,204.6c0,0,14.6,29.8,32.1,0C322,204.6,308.1,216.2,290,204.6z"/>
	<path fill="#FF927C" d="M299,242.7l-3.6-2.8c-1-0.7-2.1-1.1-3.3-1.2l-13.4-0.2c-0.5,0-0.9,0-1.4,0l-15,0.8c-0.8,0-1.6-0.1-1.6-0.9
		l0,0c0-0.8,0.6-1.4,1.4-1.4l30.6-0.8c0.3,0,0.7,0,1,0.1c1.4,0.3,2.5,1.3,3.2,2.5L299,242.7z"/>
	<path fill="#FF927C" d="M313.6,242.6l3.7-2.7c1-0.7,2.2-1.1,3.4-1.1l13.5,0.2c0.5,0,0.9,0,1.4,0.1l15.1,1.2c0.8,0,1.6-0.1,1.6-0.9
		l0,0c0-0.8-0.6-1.4-1.3-1.4l-30.9-1.6c-0.3,0-0.7,0-1,0.1c-1.4,0.3-2.5,1.2-3.3,2.4L313.6,242.6z"/>
	<path fill="#341E46" d="M278.7,154.7c0,0,10.6,11.3,17-1.2C295.7,153.6,290.4,157.7,278.7,154.7z"/>
	<path fill="#341E46" d="M314.9,153.8c0,0,8.5,12.9,16.9,1.7C331.8,155.6,325.9,158.7,314.9,153.8z"/>
	<path fill="#341E46" d="M311.6,181.7"/>
	<path fill="#FFFFFF" d="M300.5,183.3L300.5,183.3c3.6,0.7,7.3,0.7,10.9,0l0,0c0,0-1.2,3.6-5.5,3.7
		C302.4,187.1,300.5,183.3,300.5,183.3z"/>
	<circle fill="#FF7684" cx="276.3" cy="172.1" r="7.1"/>
	<circle fill="#FF7684" cx="335.6" cy="172.6" r="7.1"/>
	<path fill="#0446A5" d="M276.7,149.1c0,0,1.9-23,16-10.9C292.7,138.2,282.9,136.8,276.7,149.1z"/>
	<path fill="#0446A5" d="M333.3,150.5c0,0-1.8-23-15.9-10.9C317.4,139.5,327.2,138.1,333.3,150.5z"/>
	<path fill="none" stroke="#FF6A57" stroke-width="1.2" stroke-linecap="round" stroke-miterlimit="10" d="M309.5,147.3
		c0,0-2.9,5.8-2.5,14.6c0.1,1.4,0.7,2.8,1.8,3.7c1.7,1.4,4.3,3.4,4.3,4.9c0,2.2-7.2,5.6-7.2,5.6"/>
	<path fill="#FFA683" d="M134.3,396.2c0,0-13.9-3.3-26.7,8.5c0,0-12.1,8.4-15.1,9.6c-2.9,1.2-0.3,5.2,12.7,3.1
		c0.2,0,0.3,0.2,0.2,0.3c-1.2,1.8-5.8,9.5-3,11.8c3.2,2.6,5.6,0,5.6,0s-0.5,4.3,3.2,5.4c3.7,1.1,4.3-3.1,5.1-3.1s2,4.7,6.1,4.1
		c4.1-0.6,4.7-4.2,5.7-4.2c1,0,2.1,4.7,6.7,3.1s16.9-18.3,15.3-23.4C148.4,406.4,134.3,396.2,134.3,396.2z"/>
	<path fill="#FF927C" d="M135.3,424.2c0,0-2.3-3.5-6.9,3.9s3.4-8-3.3-7.7c-6.8,0.3-6,9.4-7.3,8.7c-1.4-0.7,2.1-10.6-1.1-11.6
		s-5.2,5.1-6.8,4.5c-1.7-0.6,1.1-3.9,0-4.6c-1.1-0.8-1.4,0.8-2.6,0.1c-1.3-0.7,1.3-2.5,3.1-2.4c1.9,0.1,0.6,4.1,1.4,2.8
		c0.8-1.3,3.5-3.6,5.4-3.4c1.9,0.2,2.9,4.8,2.7,6.2c-0.2,1.4,3.3-4.1,6.5-3.2c3.1,0.9,2.4,3.8,2.8,4.8s3.3-1.7,4.6-0.6
		C134.9,422.9,135.3,424.2,135.3,424.2z"/>
	<path fill="#FFA683" d="M483.7,392c0,0,13.7-3.4,26.3,8.7c0,0,12,8.6,14.8,9.8c2.9,1.2,0.3,5.3-12.5,3.2c-0.2,0-0.3,0.2-0.2,0.3
		c1.2,1.9,5.7,9.7,2.9,12.1c-3.2,2.7-5.5,0-5.5,0s0.5,4.4-3.2,5.5c-3.7,1.1-4.2-3.2-5-3.2c-0.8,0-1.9,4.8-6,4.2
		c-4-0.6-4.6-4.3-5.6-4.3s-2,4.8-6.6,3.2c-4.5-1.6-16.7-18.6-15-23.8C469.8,402.4,483.7,392,483.7,392z"/>
	<path fill="#FF927C" d="M482.7,420.6c0,0,2.3-3.6,6.8,4c4.5,7.6-3.4-8.2,3.3-7.9c6.7,0.3,5.9,9.6,7.2,8.9c1.3-0.7-2-10.8,1.1-11.8
		s5.1,5.2,6.7,4.6c1.6-0.6-1.1-3.9,0-4.7c1.1-0.8,1.3,0.8,2.6,0.1s-1.3-2.6-3.1-2.5c-1.8,0.1-0.6,4.2-1.3,2.9
		c-0.8-1.3-3.5-3.7-5.3-3.5c-1.8,0.2-2.9,4.9-2.7,6.3c0.2,1.4-3.3-4.1-6.4-3.2c-3.1,0.9-2.4,3.9-2.8,4.9c-0.4,1-3.3-1.8-4.5-0.6
		S482.7,420.6,482.7,420.6z"/>
	<path fill="#FFA683" d="M302.5,491.5l30.1,0.7c4,0.2,8.1-0.8,11.5-2.9l5.3-3.2c3.8-2.1,8.4-2.5,12.5-1.3l25,7.5
		c0,0,9.1-0.1,12.8,1.3c0.9,0.3,1.2,1.5,0.6,2.2c-0.5,0.6-1.1,1.3-1.8,1.5c-0.9,0.4,3.6,0.1,3.4,2.3s-1.6,2.9-2.1,3
		c-0.6,0.1,3.7,0.8,3.3,3.5c-0.4,2.4-4.5,2.2-3.4,2.4c0.7,0.2,2.6,2.9,2.1,4.6c-0.5,1.8-5,1.2-4.2,1.6c1.1,0.6,2.6,6.2-1.3,6.3
		c-3.9,0.1-3.3-1.6-7.8-4.6c-4.4-3-17.3-7.5-36.7-2.9s-49.2,4.4-49.2,4.4V491.5z"/>
	<path fill="#FF5A83" d="M395.3,515.2L393,518C393,518,398.9,521.6,395.3,515.2z"/>
	<path fill="#FF5A83" d="M397.9,509.5l-1,3.5C396.9,512.9,403.7,513.9,397.9,509.5z"/>
	<path fill="#FF5A83" d="M398.1,503.4l-0.2,3.6C397.9,507,404.8,506.4,398.1,503.4z"/>
	<path fill="#FF5A83" d="M397.4,499.1l0.3,2.5C397.7,501.6,403,499.5,397.4,499.1z"/>
	<path fill="#FF5A83" d="M397.4,494.5v1.8C397.4,496.3,399.9,495.6,397.4,494.5z"/>
</g>
</svg>
