<?xml version="1.0" encoding="utf-8"?>
<!-- Generator: Adobe Illustrator 18.1.1, SVG Export Plug-In . SVG Version: 6.00 Build 0)  -->
<svg version="1.1" id="Layer_1" xmlns="http://www.w3.org/2000/svg" xmlns:xlink="http://www.w3.org/1999/xlink" x="0px" y="0px"
	 viewBox="0 0 90 90" enable-background="new 0 0 90 90" xml:space="preserve">
<g>
	<linearGradient id="SVGID_1_" gradientUnits="userSpaceOnUse" x1="45" y1="87.3046" x2="45" y2="-1.821124e-002">
		<stop  offset="0" style="stop-color:#0062E0"/>
		<stop  offset="1" style="stop-color:#19AFFF"/>
	</linearGradient>
	<path fill="url(#SVGID_1_)" d="M75.6,90H14.4C6.4,90,0,83.6,0,75.6V14.4C0,6.4,6.4,0,14.4,0h61.2C83.6,0,90,6.4,90,14.4v61.2
		C90,83.6,83.6,90,75.6,90z"/>
	<path fill="#FFFFFF" d="M52,90l0-29.5h9L62.8,49H52v-8c0-3.3,1.2-5.7,6.1-5.7h5.3V24.9c-2.9-0.4-6.1-0.8-9-0.8
		c-9.4,0-15.9,5.7-15.9,15.9v9H28.3v11.4h10.2l0,29.5H52z"/>
</g>
</svg>
