<?xml version="1.0" encoding="utf-8"?>
<!-- Generator: Adobe Illustrator 18.1.1, SVG Export Plug-In . SVG Version: 6.00 Build 0)  -->
<svg version="1.1" id="Layer_1" xmlns="http://www.w3.org/2000/svg" xmlns:xlink="http://www.w3.org/1999/xlink" x="0px" y="0px"
	 viewBox="0 0 90 90" enable-background="new 0 0 90 90" xml:space="preserve">
<path fill="#ECECEB" d="M75.7,90h-61c-8,0-14.5-6.5-14.5-14.5v-61C0.2,6.5,6.7,0,14.7,0h60.9C83.6,0,90,6.4,90,14.3v61.4
	C90,83.6,83.6,90,75.7,90z"/>
<path id="path4776" fill="#0059D4" d="M41.6,45c0,7.7-5.8,14-12.9,14c-7.1,0-12.9-6.3-12.9-14c0-7.7,5.8-14,12.9-14
	C35.8,31,41.6,37.3,41.6,45z"/>
<path id="path4778" fill="#DA1593" d="M74.4,44.8c0,7.6-5.9,13.8-13.2,13.8S48,52.4,48,44.8C48,37.2,53.9,31,61.2,31
	S74.4,37.2,74.4,44.8z"/>
<g id="layer1_1_" transform="translate(-373.64 -318.34)">
	
		<linearGradient id="path1950_1_" gradientUnits="userSpaceOnUse" x1="70.5502" y1="141.4713" x2="52.2261" y2="88.0621" gradientTransform="matrix(-0.5915 0 0 -0.5915 432.6046 385.3382)">
		<stop  offset="0" style="stop-color:#FFFFFF"/>
		<stop  offset="1" style="stop-color:#FFFFFF;stop-opacity:0"/>
	</linearGradient>
	<path id="path1950" fill="url(#path1950_1_)" d="M430.6,318.6l-40.9-0.2c-10.3-0.2-15.8,6.7-15.8,15.4v40.7c0.3,8,1.6,2.9,4-5.9
		c2.8-10.3,11.9-19.3,23-26c8.5-5.1,17.9-8.4,35.2-8.7C445.9,333.7,445,321.1,430.6,318.6z"/>
</g>
</svg>
