<?xml version="1.0" encoding="utf-8"?>
<!-- Generator: Adobe Illustrator 18.1.1, SVG Export Plug-In . SVG Version: 6.00 Build 0)  -->
<svg version="1.1" id="Layer_1" xmlns="http://www.w3.org/2000/svg" xmlns:xlink="http://www.w3.org/1999/xlink" x="0px" y="0px"
	 viewBox="0 0 90 90" enable-background="new 0 0 90 90" xml:space="preserve">
<g>
	<linearGradient id="SVGID_1_" gradientUnits="userSpaceOnUse" x1="32.5108" y1="95.0915" x2="57.4892" y2="-5.0915">
		<stop  offset="0" style="stop-color:#FFDD55"/>
		<stop  offset="2.774927e-002" style="stop-color:#FFDD55"/>
		<stop  offset="7.482257e-002" style="stop-color:#FFC351"/>
		<stop  offset="0.1582" style="stop-color:#FF9B4A"/>
		<stop  offset="0.2404" style="stop-color:#FF7C45"/>
		<stop  offset="0.3199" style="stop-color:#FF6641"/>
		<stop  offset="0.3958" style="stop-color:#FF593F"/>
		<stop  offset="0.4639" style="stop-color:#FF543E"/>
		<stop  offset="0.4965" style="stop-color:#FB5246"/>
		<stop  offset="0.7303" style="stop-color:#DF437C"/>
		<stop  offset="0.9051" style="stop-color:#CE3A9E"/>
		<stop  offset="1" style="stop-color:#C837AB"/>
	</linearGradient>
	<path fill="url(#SVGID_1_)" d="M76.2,90H13.8C6.2,90,0,83.8,0,76.2V13.8C0,6.2,6.2,0,13.8,0h62.4C83.8,0,90,6.2,90,13.8v62.4
		C90,83.8,83.8,90,76.2,90z"/>
	
		<radialGradient id="SVGID_2_" cx="-71.7022" cy="34.1647" r="9.8479" gradientTransform="matrix(1.4636 7.5127 -631.5557 491.8902 21681.5332 -16268.5225)" gradientUnits="userSpaceOnUse">
		<stop  offset="0" style="stop-color:#3771C8"/>
		<stop  offset="0.1543" style="stop-color:#3771C8"/>
		<stop  offset="1" style="stop-color:#6600FF;stop-opacity:0"/>
	</radialGradient>
	<path fill="url(#SVGID_2_)" d="M76.7,90H13.3C5.9,90,0,84,0,76.7V13.3C0,6,5.9,0,13.3,0h63.4C84.1,0,90,6,90,13.3v63.4
		C90,84,84.1,90,76.7,90z"/>
	<path fill="#FFFFFF" d="M44.7,16.2c-7.9,0-8.9,0-12.1,0.2c-3.1,0.1-5.2,0.6-7.1,1.4c-1.9,0.7-3.6,1.7-5.2,3.4
		c-1.6,1.6-2.6,3.3-3.4,5.2c-0.7,1.9-1.2,4-1.4,7.1c-0.1,3.1-0.2,4.1-0.2,12.1s0,8.9,0.2,12.1c0.1,3.1,0.6,5.2,1.4,7.1
		c0.7,1.9,1.7,3.6,3.4,5.2c1.6,1.6,3.3,2.6,5.2,3.4c1.9,0.7,4,1.2,7.1,1.4c3.1,0.1,4.1,0.2,12.1,0.2c7.9,0,8.9,0,12.1-0.2
		c3.1-0.1,5.2-0.6,7.1-1.4c1.9-0.7,3.6-1.7,5.2-3.4c1.6-1.6,2.6-3.3,3.4-5.2c0.7-1.9,1.2-4,1.4-7.1C74,54.4,74,53.4,74,45.4
		s0-8.9-0.2-12.1c-0.1-3.1-0.6-5.2-1.4-7.1c-0.7-1.9-1.7-3.6-3.4-5.2c-1.6-1.6-3.3-2.6-5.2-3.4c-1.9-0.7-4-1.2-7.1-1.4
		C53.7,16.2,52.7,16.2,44.7,16.2L44.7,16.2z M42.1,21.4c0.8,0,1.6,0,2.6,0c7.8,0,8.7,0,11.8,0.2c2.9,0.1,4.4,0.6,5.4,1
		c1.4,0.5,2.3,1.2,3.4,2.2c1,1,1.7,2,2.2,3.4c0.4,1,0.9,2.6,1,5.4c0.1,3.1,0.2,4,0.2,11.8s0,8.7-0.2,11.8c-0.1,2.9-0.6,4.4-1,5.4
		C67,64,66.4,65,65.4,66c-1,1-2,1.7-3.4,2.2c-1,0.4-2.6,0.9-5.4,1c-3.1,0.1-4,0.2-11.8,0.2c-7.8,0-8.7,0-11.8-0.2
		c-2.9-0.1-4.4-0.6-5.4-1c-1.4-0.5-2.3-1.2-3.4-2.2c-1-1-1.7-2-2.2-3.4c-0.4-1-0.9-2.6-1-5.4c-0.1-3.1-0.2-4-0.2-11.8
		s0-8.7,0.2-11.8c0.1-2.9,0.6-4.4,1-5.4c0.5-1.4,1.2-2.3,2.2-3.4s2-1.7,3.4-2.2c1-0.4,2.6-0.9,5.4-1C35.6,21.5,36.7,21.4,42.1,21.4
		L42.1,21.4z M60.4,26.3c-1.9,0-3.5,1.6-3.5,3.5c0,1.9,1.6,3.5,3.5,3.5c1.9,0,3.5-1.6,3.5-3.5S62.3,26.3,60.4,26.3L60.4,26.3z
		 M44.7,30.4c-8.3,0-15,6.7-15,15s6.7,15,15,15c8.3,0,15-6.7,15-15S53,30.4,44.7,30.4L44.7,30.4z M44.7,35.7c5.4,0,9.8,4.4,9.8,9.8
		c0,5.4-4.4,9.8-9.8,9.8c-5.4,0-9.8-4.4-9.8-9.8C35,40,39.4,35.7,44.7,35.7z"/>
</g>
</svg>
