<?xml version="1.0" encoding="utf-8"?>
<!-- Generator: Adobe Illustrator 18.1.1, SVG Export Plug-In . SVG Version: 6.00 Build 0)  -->
<svg version="1.1" id="Layer_1" xmlns:inkscape="http://www.inkscape.org/namespaces/inkscape" xmlns="http://www.w3.org/2000/svg" xmlns:xlink="http://www.w3.org/1999/xlink" x="0px" y="0px"
	 viewBox="0 0 90 90" enable-background="new 0 0 90 90" xml:space="preserve">
<g id="layer1" transform="translate(-200.55198,-393.96227)" inkscape:groupmode="layer" inkscape:label="Layer 1">
	<g id="g3019" transform="matrix(1.018827,0,0,-1.018827,170.5996,498.03288)">
		<path fill="#006699" d="M102.9,13.8H44.2c-8.2,0-14.8,6.6-14.8,14.8v58.8c0,8.2,6.6,14.8,14.8,14.8h58.8c8.2,0,14.8-6.6,14.8-14.8
			V28.6C117.7,20.4,111.1,13.8,102.9,13.8z"/>
		<path id="path28" inkscape:connector-curvature="0" fill="#FFFFFF" d="M59.8,34.4v32.5H49V34.4H59.8z M54.4,71.3
			c3.8,0,6.1,2.5,6.1,5.6c-0.1,3.2-2.3,5.6-6,5.6c-3.7,0-6.1-2.4-6.1-5.6C48.4,73.8,50.7,71.3,54.4,71.3L54.4,71.3L54.4,71.3z"/>
		<path id="path30" inkscape:connector-curvature="0" fill="#FFFFFF" d="M65.8,34.4h10.8v18.2c0,1,0.1,1.9,0.4,2.6
			c0.8,1.9,2.6,4,5.5,4c3.9,0,5.5-3,5.5-7.4V34.4h10.8V53c0,10-5.3,14.6-12.4,14.6c-5.8,0-8.4-3.3-9.8-5.5h0.1v4.7H65.8
			C65.9,63.9,65.8,34.4,65.8,34.4L65.8,34.4z"/>
	</g>
</g>
</svg>
