<?xml version="1.0" encoding="utf-8"?>
<!-- Generator: Adobe Illustrator 18.1.1, SVG Export Plug-In . SVG Version: 6.00 Build 0)  -->
<svg version="1.1" id="Layer_1" xmlns="http://www.w3.org/2000/svg" xmlns:xlink="http://www.w3.org/1999/xlink" x="0px" y="0px"
	 viewBox="0 0 90 90" enable-background="new 0 0 90 90" xml:space="preserve">
<g id="g62" transform="translate(123.0422,246.9921)">
	<path fill="#E60023" d="M-47.3-157h-61.5c-7.9,0-14.2-6.4-14.2-14.2v-61.5c0-7.9,6.4-14.2,14.2-14.2h61.5c7.9,0,14.2,6.4,14.2,14.2
		v61.5C-33-163.4-39.4-157-47.3-157z"/>
	<path id="path64_1_" fill="#FFFFFF" d="M-90.7-175.5c-0.3-2.7-0.6-7,0.1-10c0.6-2.7,4.1-17.2,4.1-17.2s-1-2.1-1-5.2
		c0-4.8,2.8-8.4,6.3-8.4c3,0,4.4,2.2,4.4,4.9c0,3-1.9,7.4-2.9,11.6c-0.8,3.5,1.7,6.3,5.1,6.3c6.2,0,10.9-6.5,10.9-15.9
		c0-8.3-6-14.1-14.5-14.1c-9.9,0-15.7,7.4-15.7,15.1c0,3,1.1,6.2,2.6,7.9c0.3,0.3,0.3,0.6,0.2,1c-0.3,1.1-0.8,3.5-1,3.9
		c-0.2,0.6-0.5,0.8-1.2,0.5c-4.3-2-7-8.4-7-13.4c0-10.9,8-21,22.9-21c12,0,21.4,8.6,21.4,20c0,12-7.5,21.6-18,21.6
		c-3.5,0-6.8-1.8-8-4c0,0-1.7,6.6-2.2,8.2c-0.8,3-2.9,6.8-4.3,9.1L-90.7-175.5z"/>
</g>
</svg>
