<?xml version="1.0" encoding="utf-8"?>
<!-- Generator: Adobe Illustrator 18.1.1, SVG Export Plug-In . SVG Version: 6.00 Build 0)  -->
<svg version="1.1" id="Layer_1" xmlns="http://www.w3.org/2000/svg" xmlns:xlink="http://www.w3.org/1999/xlink" x="0px" y="0px"
	 viewBox="0 0 90 90" enable-background="new 0 0 90 90" xml:space="preserve">
<g>
	<path d="M75,90H15C6.7,90,0,83.3,0,75V15C0,6.7,6.7,0,15,0H75c8.3,0,15,6.7,15,15V75C90,83.3,83.3,90,75,90z"/>
	<path fill="#FF004F" d="M56.2,37.7c3.4,2.4,7.5,3.8,12,3.8v-8.6c-0.8,0-1.7-0.1-2.5-0.3v6.8c-4.5,0-8.6-1.4-12-3.8v17.6
		c0,8.8-7.1,15.9-15.9,15.9c-3.3,0-6.3-1-8.9-2.7c2.9,3,6.9,4.8,11.4,4.8c8.8,0,15.9-7.1,15.9-15.9L56.2,37.7L56.2,37.7z M59.3,29
		c-1.7-1.9-2.9-4.3-3.1-7v-1.1h-2.4C54.4,24.3,56.4,27.2,59.3,29L59.3,29z M34.4,59.7c-1-1.3-1.5-2.8-1.5-4.4c0-4,3.3-7.3,7.3-7.3
		c0.7,0,1.5,0.1,2.2,0.3v-8.8c-0.8-0.1-1.7-0.2-2.5-0.1v6.9c-0.7-0.2-1.5-0.3-2.2-0.3c-4,0-7.3,3.3-7.3,7.3
		C30.4,56,32,58.5,34.4,59.7z"/>
	<path fill="#FFFFFF" d="M53.6,35.6c3.4,2.4,7.5,3.8,12,3.8v-6.8c-2.5-0.5-4.7-1.8-6.4-3.7c-2.8-1.8-4.9-4.7-5.5-8.1h-6.3v34.4
		c0,4-3.3,7.3-7.3,7.3c-2.4,0-4.5-1.1-5.8-2.9c-2.4-1.2-4-3.7-4-6.5c0-4,3.3-7.3,7.3-7.3c0.8,0,1.5,0.1,2.2,0.3v-6.9
		c-8.6,0.2-15.6,7.2-15.6,15.9c0,4.3,1.7,8.3,4.5,11.1c2.5,1.7,5.6,2.7,8.9,2.7c8.8,0,15.9-7.1,15.9-15.9L53.6,35.6L53.6,35.6z"/>
	<path fill="#00F2EA" d="M65.6,32.7v-1.8c-2.3,0-4.5-0.6-6.4-1.8C61,30.9,63.2,32.1,65.6,32.7z M53.8,20.9c-0.1-0.3-0.1-0.7-0.1-1
		v-1.1H45v34.4c0,4-3.3,7.3-7.3,7.3c-1.2,0-2.3-0.3-3.3-0.8c1.3,1.7,3.4,2.9,5.8,2.9c4,0,7.3-3.2,7.3-7.3V20.9H53.8z M39.9,39.4v-2
		c-0.7-0.1-1.5-0.1-2.2-0.1c-8.8,0-15.9,7.1-15.9,15.9c0,5.5,2.8,10.4,7.1,13.2c-2.8-2.9-4.5-6.8-4.5-11.1
		C24.3,46.6,31.2,39.5,39.9,39.4z"/>
</g>
</svg>
