<?xml version="1.0" encoding="utf-8"?>
<!-- Generator: Adobe Illustrator 18.1.1, SVG Export Plug-In . SVG Version: 6.00 Build 0)  -->
<svg version="1.1" id="Layer_1" xmlns="http://www.w3.org/2000/svg" xmlns:xlink="http://www.w3.org/1999/xlink" x="0px" y="0px"
	 viewBox="0 0 312 312" enable-background="new 0 0 312 312" xml:space="preserve">
<g>
	<path fill="#000102" d="M262.4,312H49.6C22.2,312,0,289.8,0,262.4V49.6C0,22.2,22.2,0,49.6,0h212.5C289.8,0,312,22.2,312,49.6
		v212.5C312,289.8,289.8,312,262.4,312z"/>
</g>
<path fill="#FFFFFF" d="M170.8,143.3L231,73.4h-14.2l-52.2,60.7l-41.7-60.7H74.7l63.1,91.8l-63.1,73.3H89l55.1-64.1l44,64.1h48.1
	L170.8,143.3L170.8,143.3z M151.3,166l-6.4-9.1L94.1,84.1H116l41,58.7l6.4,9.1l53.3,76.3h-21.9L151.3,166L151.3,166z"/>
</svg>
