<?xml version="1.0" encoding="utf-8"?>
<!-- Generator: Adobe Illustrator 18.1.1, SVG Export Plug-In . SVG Version: 6.00 Build 0)  -->
<svg version="1.1" id="Layer_1" xmlns="http://www.w3.org/2000/svg" xmlns:xlink="http://www.w3.org/1999/xlink" x="0px" y="0px"
	 viewBox="0 0 90 90" enable-background="new 0 0 90 90" xml:space="preserve">
<path fill="#1AB7EA" d="M74.9,90H15.1C6.7,90,0,83.3,0,74.9V15.1C0,6.7,6.7,0,15.1,0h59.9C83.3,0,90,6.7,90,15.1v59.9
	C90,83.3,83.3,90,74.9,90z"/>
<path id="path4" fill="#FFFFFF" d="M69.8,33.1c-0.2,5.1-3.8,12-10.6,20.8c-7.1,9.2-13,13.8-17.9,13.8c-3,0-5.6-2.8-7.7-8.4
	c-1.4-5.1-2.8-10.2-4.2-15.4c-1.6-5.6-3.2-8.4-5-8.4c-0.4,0-1.7,0.8-4.1,2.4L18,34.8c2.6-2.2,5.1-4.5,7.6-6.8c3.4-2.9,6-4.5,7.7-4.7
	c4-0.4,6.5,2.4,7.5,8.3c1,6.4,1.7,10.3,2.1,11.9c1.2,5.3,2.4,7.9,3.8,7.9c1.1,0,2.7-1.7,4.9-5.1c2.2-3.4,3.3-6,3.5-7.8
	c0.3-3-0.9-4.4-3.5-4.4c-1.2,0-2.5,0.3-3.8,0.9c2.5-8.4,7.4-12.4,14.6-12.2C67.6,22.9,70.1,26.4,69.8,33.1"/>
</svg>
