<?xml version="1.0" encoding="utf-8"?>
<!-- Generator: Adobe Illustrator 18.1.1, SVG Export Plug-In . SVG Version: 6.00 Build 0)  -->
<svg version="1.1" id="Layer_1" xmlns="http://www.w3.org/2000/svg" xmlns:xlink="http://www.w3.org/1999/xlink" x="0px" y="0px"
	 viewBox="0 0 90 90" enable-background="new 0 0 90 90" xml:space="preserve">
<g transform="matrix(5.715038, 0, 0, 5.715038, 409.288757, 277.787231)">
	<g>
		<path fill="#FF0000" d="M-56.3-44.5c-0.2-0.7-0.7-1.2-1.4-1.4c-1.2-0.3-6.1-0.3-6.1-0.3s-4.9,0-6.1,0.3c-0.7,0.2-1.2,0.7-1.4,1.4
			c-0.3,1.2-0.3,3.8-0.3,3.8s0,2.5,0.3,3.8c0.2,0.7,0.7,1.2,1.4,1.4c1.2,0.3,6.1,0.3,6.1,0.3s4.9,0,6.1-0.3c0.7-0.2,1.2-0.7,1.4-1.4
			c0.3-1.2,0.3-3.8,0.3-3.8S-55.9-43.3-56.3-44.5z"/>
		<path fill="#FFFFFF" d="M-65.3-38.4l4.1-2.3l-4.1-2.3V-38.4z"/>
	</g>
</g>
</svg>
